<svg width="657" height="618" viewBox="0 0 657 618" fill="none" xmlns="http://www.w3.org/2000/svg">
<path d="M282.549 0L419.476 24.2005L574.539 148.34L657 354.941L560.646 530.619L371.075 617.114L155.929 592.913L0 489.389V293.095L60.9195 136.24L282.549 0Z" fill="#F0EFF4"/>
<g clip-path="url(#clip0_63_86)">
<path d="M597.843 297.287C597.844 311.693 592.408 325.57 582.624 336.141C572.839 346.713 559.425 353.201 545.065 354.309C544.581 354.345 544.09 354.382 543.599 354.404V300.124C543.599 299.582 543.478 299.046 543.245 298.556C543.012 298.067 542.672 297.635 542.25 297.294C542.201 297.244 542.147 297.2 542.089 297.162C542.035 297.119 541.979 297.08 541.92 297.045C541.405 296.713 540.815 296.516 540.204 296.471C539.594 296.426 538.981 296.535 538.423 296.788L537.815 295.454C538.48 295.151 539.203 294.993 539.934 294.992L498.18 259.013C498.503 258.646 498.84 258.287 499.177 257.928C507.049 249.628 517.228 243.88 528.399 241.427C539.57 238.974 551.22 239.927 561.844 244.165C572.467 248.403 581.576 255.73 587.994 265.2C594.411 274.67 597.842 285.847 597.843 297.287Z" fill="#F2F2F2"/>
<path d="M54.8318 336.284C54.6241 335.223 54.6516 334.129 54.9123 333.08C55.173 332.03 55.6605 331.051 56.3406 330.21C57.0206 329.37 57.8766 328.689 58.8483 328.215C59.82 327.741 60.8837 327.486 61.9645 327.468L94.9231 288.224L103.151 298.747L69.5619 335.27C69.472 337.088 68.7184 338.81 67.4439 340.11C66.1694 341.41 64.4626 342.196 62.647 342.321C60.8313 342.446 59.0329 341.901 57.5925 340.788C56.1521 339.675 55.1698 338.073 54.8318 336.284Z" fill="#A0616A"/>
<path d="M211.341 287.981C211.11 288.315 210.906 288.667 210.73 289.032L174.743 294.178L169.278 287.238L157.73 294.119L168.585 311.048L212.476 298.107C213.634 299.155 215.084 299.826 216.633 300.031C218.182 300.235 219.756 299.963 221.146 299.251C222.537 298.538 223.678 297.419 224.417 296.042C225.156 294.666 225.459 293.097 225.285 291.544C225.111 289.991 224.468 288.528 223.442 287.349C222.417 286.17 221.056 285.332 219.543 284.945C218.029 284.558 216.433 284.642 214.968 285.184C213.503 285.726 212.238 286.702 211.341 287.981Z" fill="#A0616A"/>
<path d="M149.868 419.102L156.236 425.444L183.725 403.894L174.326 394.533L149.868 419.102Z" fill="#A0616A"/>
<path d="M162.63 443.591L142.616 423.658L150.315 415.923L162.597 428.155C163.612 429.166 164.419 430.368 164.97 431.691C165.521 433.014 165.807 434.433 165.81 435.866C165.813 437.3 165.534 438.72 164.988 440.045C164.442 441.371 163.641 442.576 162.63 443.591Z" fill="#3D2645"/>
<path d="M116.017 479.937H125.004L129.279 445.265H116.015L116.017 479.937Z" fill="#A0616A"/>
<path d="M142.335 488.283L114.091 488.284L114.091 477.369L131.422 477.368C132.855 477.368 134.274 477.651 135.598 478.199C136.922 478.748 138.125 479.552 139.139 480.565C140.152 481.579 140.956 482.782 141.504 484.106C142.053 485.43 142.335 486.85 142.335 488.283Z" fill="#3D2645"/>
<path d="M114.063 453.158L103.827 377.647C102.225 366.235 102.722 354.627 105.294 343.394C107.394 334.367 110.232 328.114 113.729 324.809C114.28 324.292 114.987 323.969 115.739 323.891L149.537 320.369C150.188 320.303 150.844 320.423 151.43 320.716C152.015 321.008 152.505 321.461 152.843 322.022L153.954 323.874C154.089 324.099 154.197 324.338 154.278 324.588L161.424 346.745C161.53 347.08 161.702 347.39 161.93 347.658C162.158 347.926 162.436 348.145 162.749 348.304C174 354.05 210.545 373.444 208.454 381.812C206.489 389.675 188.091 402.423 182.499 406.142C181.93 406.523 181.259 406.724 180.574 406.719C179.889 406.713 179.221 406.502 178.658 406.113L169.375 399.761C168.922 399.45 168.55 399.036 168.289 398.553C168.029 398.069 167.888 397.53 167.878 396.981C167.869 396.432 167.991 395.888 168.234 395.396C168.478 394.903 168.835 394.476 169.277 394.151L175.679 389.433C176.07 389.144 176.376 388.754 176.562 388.304C176.749 387.855 176.809 387.363 176.737 386.881C176.665 386.4 176.463 385.947 176.153 385.572C175.843 385.197 175.436 384.913 174.977 384.752L140.599 372.687C140.213 372.551 139.801 372.506 139.395 372.555C138.989 372.603 138.599 372.744 138.256 372.967C137.913 373.19 137.626 373.489 137.416 373.84C137.206 374.191 137.08 374.586 137.047 374.994L130.708 452.486C130.638 453.316 130.269 454.094 129.671 454.674C129.072 455.254 128.284 455.598 127.451 455.641L117.644 456.132C117.584 456.135 117.525 456.136 117.466 456.136C116.633 456.139 115.828 455.839 115.202 455.29C114.575 454.742 114.17 453.984 114.063 453.158Z" fill="#3D2645"/>
<path d="M129.563 257.851C139.507 257.851 147.567 249.788 147.567 239.842C147.567 229.897 139.507 221.834 129.563 221.834C119.62 221.834 111.559 229.897 111.559 239.842C111.559 249.788 119.62 257.851 129.563 257.851Z" fill="#A0616A"/>
<path d="M112.724 321.725L99.4712 273.359L99.6981 273.206C99.9828 273.014 128.548 254.147 161.991 269.351L162.598 269.699L154.745 319.9C154.574 321.046 154.008 322.096 153.146 322.869C152.283 323.642 151.178 324.09 150.021 324.135L117.707 325.379C117.642 325.381 117.577 325.382 117.512 325.382C116.423 325.385 115.363 325.028 114.497 324.367C113.632 323.705 113.008 322.777 112.724 321.725Z" fill="#DA4167"/>
<path d="M98.9669 304.846L87.9295 292.15C87.3979 291.54 87.0985 290.762 87.0843 289.953C87.07 289.144 87.3417 288.355 87.8515 287.727L99.3898 273.47L108.247 275.886L112.943 292.326L104.381 304.561C104.082 304.991 103.689 305.346 103.232 305.599C102.775 305.853 102.265 305.998 101.743 306.024C101.681 306.027 101.62 306.028 101.558 306.028C101.067 306.029 100.581 305.924 100.133 305.72C99.6862 305.516 99.2883 305.218 98.9669 304.846Z" fill="#DA4167"/>
<path d="M160.003 302.201C159.48 302.175 158.971 302.03 158.514 301.776C158.056 301.523 157.663 301.168 157.365 300.738L148.802 288.503L152.921 271.197L161.076 268.973L162.598 269.699L173.894 283.904C174.404 284.532 174.675 285.321 174.661 286.13C174.647 286.939 174.348 287.717 173.816 288.327L162.779 301.023C162.457 301.395 162.059 301.693 161.612 301.897C161.165 302.101 160.679 302.206 160.187 302.206C160.126 302.205 160.064 302.204 160.003 302.201Z" fill="#DA4167"/>
<path d="M543.599 296.532C543.605 296.714 543.543 296.892 543.423 297.03C543.296 297.178 543.116 297.27 542.923 297.285C542.729 297.3 542.537 297.237 542.389 297.111L539.934 294.992L498.18 259.013L381.071 158.086C380.403 157.514 379.553 157.201 378.673 157.202C377.794 157.203 376.944 157.52 376.277 158.094L218.573 295.139L217.151 296.37C217.096 296.419 217.035 296.458 216.968 296.488C216.85 296.54 216.721 296.56 216.594 296.546C216.411 296.527 216.241 296.441 216.117 296.304C216.054 296.232 216.005 296.148 215.974 296.057C215.943 295.966 215.93 295.87 215.936 295.774C215.942 295.678 215.967 295.584 216.009 295.497C216.052 295.411 216.111 295.334 216.183 295.271L216.381 295.095L375.317 156.987C376.251 156.184 377.441 155.742 378.672 155.739C379.903 155.737 381.094 156.174 382.031 156.972L499.177 257.928L543.342 295.996C543.419 296.063 543.482 296.145 543.526 296.237C543.57 296.329 543.595 296.43 543.599 296.532Z" fill="#3D2645"/>
<path d="M454.558 318.184L452.63 312.875L445.988 294.545L431.68 255.076L415.685 210.959L386.84 131.383C386.274 129.831 385.116 128.567 383.619 127.868C382.123 127.168 380.411 127.09 378.857 127.651L212.086 188.134C210.534 188.7 209.27 189.858 208.57 191.355C207.871 192.851 207.793 194.564 208.355 196.118L249.251 308.93L249.947 310.859L292.873 330.318L304.939 335.788L306.896 336.675L357.981 359.837L359.96 359.119L393.467 346.969L444.009 328.639L450.819 326.168C452.372 325.603 453.637 324.445 454.338 322.948C455.038 321.452 455.118 319.738 454.558 318.184Z" fill="#832161"/>
<path d="M384.626 224.215C383.794 221.931 382.091 220.07 379.89 219.041C377.688 218.011 375.169 217.897 372.883 218.723L306.896 242.662L275.031 254.218C273.899 254.627 272.858 255.256 271.969 256.067C271.08 256.879 270.36 257.858 269.849 258.949C269.338 260.039 269.047 261.22 268.993 262.423C268.939 263.626 269.122 264.828 269.532 265.96C269.943 267.092 270.572 268.132 271.384 269.021C272.197 269.909 273.176 270.629 274.267 271.139C275.358 271.648 276.538 271.938 277.741 271.991C278.944 272.044 280.145 271.86 281.277 271.448L306.896 262.159L379.136 235.961C381.419 235.129 383.279 233.425 384.309 231.223C385.338 229.021 385.452 226.501 384.626 224.215Z" fill="white"/>
<path d="M396.245 256.271C395.413 253.987 393.71 252.127 391.508 251.097C389.307 250.068 386.787 249.953 384.502 250.779L373.323 254.834L306.896 278.927L286.65 286.267C284.367 287.097 282.506 288.799 281.478 291.001C280.449 293.202 280.336 295.722 281.164 298.006C281.992 300.291 283.692 302.153 285.892 303.184C288.092 304.215 290.611 304.33 292.895 303.504L306.896 298.423L390.755 268.01C390.945 267.944 391.129 267.863 391.312 267.782C393.441 266.848 395.135 265.139 396.051 263.001C396.967 260.864 397.037 258.458 396.245 256.271Z" fill="white"/>
<path d="M407.988 288.664C407.158 286.381 405.456 284.52 403.256 283.491C401.056 282.461 398.537 282.347 396.253 283.173L364.901 294.545L340.63 303.351L306.896 315.581L298.393 318.667C296.428 319.384 294.766 320.749 293.682 322.538C292.598 324.328 292.158 326.433 292.433 328.507C292.517 329.124 292.665 329.731 292.873 330.318L304.939 335.788L306.896 335.077H306.911L368.126 312.875L402.498 300.41C404.782 299.58 406.644 297.876 407.673 295.674C408.703 293.472 408.816 290.95 407.988 288.664Z" fill="white"/>
<path d="M339.281 192.702C338.449 190.418 336.746 188.557 334.545 187.528C332.343 186.498 329.824 186.384 327.538 187.21L289.64 200.95C287.357 201.78 285.497 203.483 284.468 205.684C283.44 207.886 283.327 210.405 284.154 212.69C284.982 214.974 286.683 216.837 288.882 217.868C291.082 218.899 293.601 219.014 295.886 218.188L307.878 213.84L315.817 210.959L333.791 204.44C336.074 203.61 337.934 201.907 338.963 199.707C339.993 197.506 340.107 194.987 339.281 192.702Z" fill="white"/>
<path d="M490.52 210.958H313.127C312.08 210.96 311.051 211.224 310.134 211.728C309.217 212.231 308.441 212.958 307.878 213.84C307.235 214.839 306.894 216.003 306.896 217.191V336.675L357.981 359.837L365.179 363.1L376.548 368.255C377.214 368.555 377.936 368.711 378.667 368.711C379.397 368.711 380.12 368.555 380.785 368.255L392.155 363.1L427.736 346.969L460.898 331.931L496.751 315.683V217.191C496.75 215.538 496.093 213.954 494.925 212.785C493.756 211.617 492.172 210.96 490.52 210.958Z" fill="#DA4167"/>
<path d="M453.869 294.545H349.778C347.411 294.546 345.137 295.464 343.432 297.106C341.726 298.747 340.722 300.985 340.63 303.351C340.618 303.47 340.613 303.59 340.615 303.71C340.619 306.14 341.585 308.469 343.303 310.187C345.021 311.905 347.349 312.872 349.778 312.875H453.869C456.299 312.875 458.629 311.91 460.348 310.191C462.066 308.472 463.031 306.141 463.031 303.71C463.031 301.279 462.066 298.948 460.348 297.229C458.629 295.511 456.299 294.545 453.869 294.545Z" fill="white"/>
<path d="M459.799 330.824C458.147 329.41 456.043 328.635 453.868 328.639H349.778C347.348 328.639 345.017 329.605 343.299 331.324C341.581 333.042 340.615 335.374 340.615 337.804C340.615 340.235 341.581 342.566 343.299 344.285C345.017 346.004 347.348 346.969 349.778 346.969H427.736L460.898 331.931C460.564 331.532 460.196 331.161 459.799 330.824Z" fill="white"/>
<path d="M365.179 363.1L376.548 368.255C377.214 368.555 377.936 368.711 378.667 368.711C379.397 368.711 380.12 368.555 380.785 368.255L392.155 363.1H365.179Z" fill="white"/>
<path d="M430.587 255.472C429.942 253.707 428.771 252.184 427.232 251.107C425.692 250.031 423.86 249.453 421.982 249.452H381.665C379.905 249.454 378.182 249.962 376.703 250.916C375.224 251.871 374.05 253.231 373.323 254.834C372.78 256.021 372.5 257.312 372.502 258.617C372.505 261.047 373.472 263.376 375.189 265.094C376.907 266.812 379.236 267.779 381.665 267.782H421.982C423.456 267.783 424.908 267.427 426.215 266.746C427.522 266.065 428.646 265.078 429.491 263.87C430.336 262.661 430.876 261.267 431.067 259.805C431.258 258.343 431.094 256.857 430.587 255.472Z" fill="white"/>
<path d="M424.181 346.97L388.599 363.1L380.177 366.92C379.702 367.134 379.188 367.245 378.667 367.245C378.146 367.245 377.632 367.134 377.157 366.92L368.735 363.1H365.179L376.548 368.255C377.214 368.556 377.936 368.711 378.667 368.711C379.397 368.711 380.12 368.556 380.785 368.255L392.155 363.1L427.736 346.97H424.181ZM424.181 346.97L388.599 363.1L380.177 366.92C379.702 367.134 379.188 367.245 378.667 367.245C378.146 367.245 377.632 367.134 377.157 366.92L368.735 363.1H365.179L376.548 368.255C377.214 368.556 377.936 368.711 378.667 368.711C379.397 368.711 380.12 368.556 380.785 368.255L392.155 363.1L427.736 346.97H424.181ZM424.181 346.97L388.599 363.1L380.177 366.92C379.702 367.134 379.188 367.245 378.667 367.245C378.146 367.245 377.632 367.134 377.157 366.92L368.735 363.1H365.179L376.548 368.255C377.214 368.556 377.936 368.711 378.667 368.711C379.397 368.711 380.12 368.556 380.785 368.255L392.155 363.1L427.736 346.97H424.181ZM543.599 296.532C543.328 296.263 543.031 296.022 542.712 295.813C541.992 295.346 541.165 295.069 540.309 295.006C539.453 294.943 538.596 295.097 537.815 295.454L459.799 330.824L424.181 346.97L388.599 363.1L380.177 366.92C379.702 367.134 379.188 367.245 378.667 367.245C378.146 367.245 377.632 367.134 377.157 366.92L368.735 363.1L359.96 359.119L306.91 335.077L306.896 335.07L292.433 328.507L249.251 308.931L219.519 295.454C219.216 295.314 218.899 295.208 218.573 295.139C217.855 294.959 217.106 294.944 216.381 295.095C215.222 295.332 214.18 295.962 213.431 296.878C212.682 297.795 212.271 298.941 212.269 300.125V484.256C212.271 485.617 212.812 486.922 213.774 487.884C214.736 488.846 216.04 489.387 217.4 489.389H539.934C541.294 489.387 542.598 488.846 543.56 487.884C544.522 486.922 545.063 485.617 545.065 484.256V300.125C545.067 298.781 544.541 297.49 543.599 296.532ZM543.599 484.256C543.598 485.229 543.212 486.161 542.525 486.848C541.838 487.536 540.905 487.922 539.934 487.922H217.4C216.428 487.922 215.496 487.536 214.809 486.848C214.122 486.161 213.735 485.229 213.735 484.256V300.125C213.735 299.512 213.889 298.909 214.182 298.371C214.476 297.833 214.899 297.377 215.414 297.045C215.776 296.813 216.175 296.645 216.594 296.547C216.717 296.52 216.842 296.5 216.968 296.488C217.111 296.467 217.256 296.457 217.4 296.459C217.921 296.459 218.436 296.572 218.91 296.789L249.947 310.859L292.873 330.318L304.939 335.788L306.896 336.675L357.981 359.838L365.179 363.1L376.548 368.255C377.214 368.556 377.936 368.711 378.667 368.711C379.397 368.711 380.12 368.556 380.785 368.255L392.155 363.1L427.736 346.97L460.898 331.931L538.423 296.789C538.981 296.536 539.594 296.427 540.204 296.472C540.815 296.516 541.405 296.714 541.92 297.045C541.979 297.08 542.035 297.119 542.089 297.163C542.147 297.2 542.201 297.245 542.25 297.295C542.672 297.636 543.012 298.067 543.245 298.557C543.478 299.046 543.599 299.582 543.599 300.125L543.599 484.256ZM424.181 346.97L388.599 363.1L380.177 366.92C379.702 367.134 379.188 367.245 378.667 367.245C378.146 367.245 377.632 367.134 377.157 366.92L368.735 363.1H365.179L376.548 368.255C377.214 368.556 377.936 368.711 378.667 368.711C379.397 368.711 380.12 368.556 380.785 368.255L392.155 363.1L427.736 346.97H424.181ZM424.181 346.97L388.599 363.1L380.177 366.92C379.702 367.134 379.188 367.245 378.667 367.245C378.146 367.245 377.632 367.134 377.157 366.92L368.735 363.1H365.179L376.548 368.255C377.214 368.556 377.936 368.711 378.667 368.711C379.397 368.711 380.12 368.556 380.785 368.255L392.155 363.1L427.736 346.97H424.181ZM304.939 335.788L306.896 336.675V335.077L304.939 335.788ZM424.181 346.97L388.599 363.1L380.177 366.92C379.702 367.134 379.188 367.245 378.667 367.245C378.146 367.245 377.632 367.134 377.157 366.92L368.735 363.1H365.179L376.548 368.255C377.214 368.556 377.936 368.711 378.667 368.711C379.397 368.711 380.12 368.556 380.785 368.255L392.155 363.1L427.736 346.97H424.181Z" fill="#3D2645"/>
<path d="M169 489.389H86.1676C85.9732 489.389 85.7867 489.312 85.6493 489.174C85.5118 489.037 85.4346 488.85 85.4346 488.656C85.4346 488.461 85.5118 488.275 85.6493 488.137C85.7867 488 85.9732 487.922 86.1676 487.922H169C169.194 487.922 169.381 488 169.518 488.137C169.656 488.275 169.733 488.461 169.733 488.656C169.733 488.85 169.656 489.037 169.518 489.174C169.381 489.312 169.194 489.389 169 489.389Z" fill="#3D2645"/>
<path d="M122.718 253.012C121.365 252.326 120.241 251.262 119.481 249.95C118.72 248.637 118.356 247.133 118.433 245.618C118.51 244.103 119.024 242.643 119.913 241.414C120.802 240.185 122.028 239.24 123.443 238.694C128.876 236.597 134.967 240.877 140.662 239.66C146.338 238.448 149.621 231.66 148.266 226.015C146.912 220.37 141.98 216.117 136.543 214.087C132.992 212.764 129.188 212.257 125.415 212.603C121.641 212.949 117.993 214.139 114.742 216.086C111.524 218.089 108.843 220.849 106.934 224.124C105.025 227.4 103.945 231.092 103.787 234.881C103.713 238.672 104.639 242.416 106.472 245.736C108.305 249.056 110.98 251.834 114.228 253.791C115.675 254.625 117.36 255.295 118.988 254.919C120.324 254.485 121.583 253.841 122.718 253.012Z" fill="#3D2645"/>
<ellipse cx="107.11" cy="214.668" rx="15.6855" ry="15.6855" fill="#3D2645"/>
</g>
<path d="M428.564 521.656H138.804C138.124 521.656 137.472 521.609 136.991 521.525C136.51 521.441 136.24 521.327 136.24 521.208C136.24 521.089 136.51 520.975 136.991 520.891C137.472 520.807 138.124 520.76 138.804 520.76H428.564C429.244 520.76 429.896 520.807 430.377 520.891C430.858 520.975 431.128 521.089 431.128 521.208C431.128 521.327 430.858 521.441 430.377 521.525C429.896 521.609 429.244 521.656 428.564 521.656Z" fill="#3D2645"/>
<path d="M322.417 554.82H192.069C191.763 554.82 191.47 554.773 191.253 554.689C191.037 554.605 190.916 554.491 190.916 554.372C190.916 554.253 191.037 554.139 191.253 554.055C191.47 553.971 191.763 553.924 192.069 553.924H322.417C322.723 553.924 323.016 553.971 323.232 554.055C323.449 554.139 323.57 554.253 323.57 554.372C323.57 554.491 323.449 554.605 323.232 554.689C323.016 554.773 322.723 554.82 322.417 554.82Z" fill="#3D2645"/>
<defs>
<clipPath id="clip0_63_86">
<rect width="557.509" height="362.112" fill="white" transform="translate(40.3342 127.277)"/>
</clipPath>
</defs>
</svg>
