<svg viewBox="0 0 537 530" fill="none" xmlns="http://www.w3.org/2000/svg">
<path d="M235 0L385.5 67.75L465 190.5L513.5 326.5L532 475.5L377 529.5L178.273 493.375L60.5 389L18.0465 258.125L60.5 89.5L162.023 8.75L235 0Z" fill="#3D2645"/>
<path d="M304.5 22L391.5 82.5L467 254.5L537 419L503 495L285.5 510L98.5 419L0 219L132.5 22H304.5Z" fill="#832161"/>
<path d="M208.5 34L387.334 93L497 267.5V415.5L371 495L139.332 415.5L13.5 286L29.6658 104.5L208.5 34Z" fill="#F0EFF4"/>
<mask id="mask0_56_870" style="mask-type:alpha" maskUnits="userSpaceOnUse" x="13" y="34" width="484" height="461">
<path d="M208.5 34L387.334 93L497 267.5V415.5L371 495L139.332 415.5L13.5 286L29.6658 104.5L208.5 34Z" fill="#F0EFF4"/>
</mask>
<g mask="url(#mask0_56_870)">
<path d="M461.218 287.409L459.606 300.244L455.606 332.124H375.24C375.867 324.979 376.725 314.694 377.642 303.591C377.732 302.483 377.827 301.367 377.917 300.244C380.215 272.335 382.73 240.753 382.73 240.753L393.296 242.722L413.795 246.533L422.148 248.086L444.516 252.251C455.669 254.323 463.34 270.471 461.218 287.409Z" fill="#F2F2F2"/>
<path d="M400.428 189.109L410.311 206.403L391.316 219.865L383.213 198.607L400.428 189.109Z" fill="#FFB6B6"/>
<path d="M387.846 205.47C401.368 205.47 412.329 194.508 412.329 180.986C412.329 167.465 401.368 156.503 387.846 156.503C374.324 156.503 363.363 167.465 363.363 180.986C363.363 194.508 374.324 205.47 387.846 205.47Z" fill="#FFB6B6"/>
<path d="M386.089 186.46C384.144 183.501 384.907 181.954 383.28 180.866C383.28 180.866 382.625 180.429 377.938 180.179C376.888 172.626 375.578 171.71 375.578 171.71C374.068 170.654 371.828 170.997 370.434 171.643C367.485 173.009 367.827 175.958 365.842 176.523C363.1 177.303 358.111 172.907 357.619 167.874C357.218 163.769 359.863 159.782 360.912 159.993C361.952 160.202 364.442 157.023 365.787 157.072C366.705 157.106 370.457 155.475 371.466 155.603C372.568 155.742 376.202 157.639 376.353 157.205C377.406 154.194 377.097 153.359 377.989 152.498C379.572 150.971 382.16 152.034 386.221 152.605C394.575 153.779 396.034 151.024 400.315 152.891C402.478 153.835 404.288 156.378 407.819 161.427C412.758 168.489 415.227 172.019 415.243 176.137C415.259 180.337 413.226 180.07 412.332 186.287C411.338 193.208 413.451 196.372 411.143 198.62C409.359 200.358 405.733 200.771 403.828 199.246C400.566 196.634 404.835 190.334 401.225 185.731C399.01 182.905 394.554 181.648 392.513 183.045C390.205 184.624 391.477 189.259 389.854 189.699C388.464 190.075 386.427 186.975 386.089 186.46Z" fill="#3D2645"/>
<path d="M403.634 322.893L402.559 325.885L401.883 327.761L400.315 332.124L398.499 337.17H386.823L388.781 332.124L389.69 329.773L391.198 325.885L393.726 319.355L403.634 322.893Z" fill="#FFB6B6"/>
<path d="M438.96 241.626C438.931 242.012 438.889 242.439 438.847 242.902C438.384 247.616 437.292 256.051 435.695 265.674C434.852 270.749 433.867 276.157 432.757 281.529C430.371 293.123 427.402 304.538 424.048 312.041C423.449 313.395 422.831 314.618 422.202 315.698C421.721 316.523 421.216 317.336 420.688 318.138C418.979 320.768 417.061 323.261 415.073 325.588C414.996 325.689 414.906 325.784 414.818 325.885C414.497 326.264 414.164 326.639 413.832 327.013C412.205 328.847 410.543 330.556 408.935 332.124C406.976 334.035 405.088 335.727 403.396 337.169H384.436L384.358 337.134L381.628 335.923C381.628 335.923 382.405 335.009 383.706 333.281C383.973 332.931 384.258 332.545 384.567 332.124C384.946 331.607 385.356 331.037 385.795 330.42C386.709 329.126 387.748 327.606 388.864 325.885C391.025 322.554 393.488 318.458 395.976 313.715C396.261 313.163 396.552 312.605 396.843 312.041C396.848 312.024 396.86 312.006 396.866 311.988C397.359 311.026 397.846 310.035 398.332 309.026C402.458 300.442 403.64 293.318 403.978 291.009C404.453 287.745 405.111 283.179 404.934 278.157C404.815 274.845 404.334 271.343 403.189 267.864V267.858C402.951 267.128 402.684 266.398 402.381 265.674C401.841 264.374 401.2 263.091 400.44 261.827C397.086 256.259 394.361 256.027 392.194 249.96C391.553 248.162 390.099 244.101 390.544 239.815V239.81C390.598 239.281 390.687 238.747 390.805 238.212V238.207C390.835 238.058 390.877 237.904 390.918 237.756C391.256 236.444 391.815 235.143 392.663 233.909C394.32 231.511 396.581 230.086 398.605 229.237L398.612 229.231C400.95 228.258 402.969 228.05 403.361 228.014C412.033 227.243 418.759 234.532 422.434 238.515C423.852 240.053 425.153 241.341 426.34 242.392C435.582 250.643 438.117 245.372 438.776 242.647C438.877 242.226 438.931 241.863 438.96 241.626Z" fill="white"/>
<path d="M438.99 241.318C438.99 241.347 438.984 241.448 438.961 241.614C438.972 241.525 438.979 241.436 438.984 241.353C438.984 241.335 438.984 241.323 438.99 241.318Z" fill="white"/>
<path d="M391.844 366.578H73.6335C70.6769 366.578 68.2671 368.982 68.2671 371.938C68.2671 374.9 70.6769 377.304 73.6335 377.304H391.844C394.8 377.304 397.205 374.9 397.205 371.938C397.205 368.982 394.8 366.578 391.844 366.578Z" fill="#3D2645"/>
<path d="M321.227 394.288H144.244C141.288 394.288 138.884 396.692 138.884 399.648C138.884 402.604 141.288 405.014 144.244 405.014H321.227C324.183 405.014 326.593 402.604 326.593 399.648C326.593 396.692 324.183 394.288 321.227 394.288Z" fill="#3D2645"/>
<path d="M109.042 190.247L129.097 181.807L137.699 199.44L116.624 208.042L109.042 190.247Z" fill="#FFB6B6"/>
<path opacity="0.1" d="M109.042 190.247L129.097 181.807L137.699 199.44L116.624 208.042L109.042 190.247Z" fill="black"/>
<path d="M111.893 183.527L131.678 206.322C131.678 206.322 117.915 249.761 104.152 253.632C90.3886 257.503 65.0132 276.427 65.0132 276.427L33.1863 255.783L48.6696 232.988C48.6696 232.988 86.0877 181.807 95.9799 181.807C105.872 181.807 111.893 183.527 111.893 183.527Z" fill="#832161"/>
<path d="M46.5378 243L75.1086 257.412L30.0707 346.696L1.49989 332.284L46.5378 243Z" fill="#FFB6B6"/>
<path d="M81.5557 338.642H35.5014L32.5897 334.75L20.7019 318.858L17.9665 315.202C17.9665 315.202 7.64428 296.278 9.79474 279.075C11.9452 261.871 34.31 258 34.31 258H35.2304L62.6102 282.059L60.9758 304.45L69.6465 318.858L81.5557 338.642Z" fill="#3D2645"/>
<path d="M48.5406 332.124H36.1969V313.845L48.5406 332.124Z" fill="#2F2E41"/>
<path d="M314.776 304.374L313.241 312.34L309.43 332.124H232.878C233.476 327.69 234.293 321.307 235.166 314.417C235.252 313.729 235.343 313.036 235.429 312.34C237.618 295.02 240.013 275.42 240.013 275.42L250.078 276.642L269.604 279.007L277.56 279.971L298.867 282.556C309.491 283.842 316.798 293.863 314.776 304.374Z" fill="#F2F2F2"/>
<path d="M423.113 332.124H381.591C382.224 331.38 382.581 330.95 382.581 330.95L395.028 328.894L420.674 324.662C420.674 324.662 421.844 327.685 423.113 332.124Z" fill="#2F2E41"/>
<path d="M246.991 198.849L265.048 224.386L233.551 225.326L230.17 201.328L246.991 198.849Z" fill="#A0616A"/>
<path opacity="0.1" d="M246.991 198.849L265.048 224.386L233.551 225.326L230.17 201.328L246.991 198.849Z" fill="black"/>
<path d="M157.943 251.759C155.626 245.075 150.299 240.853 146.046 242.328C141.793 243.803 140.224 250.416 142.543 257.102C143.432 259.786 144.951 262.217 146.973 264.193L157.148 292.388L170.277 287.331L158.853 260.073C159.218 257.268 158.906 254.418 157.943 251.759Z" fill="#A0616A"/>
<path d="M280.171 238.747L280.146 264.772L277.724 274.384L272.744 294.156L269.118 312.34L266.417 325.888L265.454 330.726C264.727 331.212 264.004 331.677 263.282 332.124H200.372C196.798 329.978 194.798 328.309 194.798 328.309C194.798 328.309 195.787 327.38 196.919 325.888C198.828 323.367 201.138 319.239 199.723 315.295C199.426 314.469 199.349 313.462 199.439 312.34C200.015 304.934 207.783 292.409 207.783 292.409L206.174 273.821L205.469 265.675L210.442 225.956L226.652 216.532L229.451 216.261L257.076 214.769L268.494 215.427L269.014 215.569L280.171 238.747Z" fill="#DA4167"/>
<path d="M281.397 332.124H267.634L267.028 325.888L267.015 325.763L270.912 325.496L281.049 324.804L281.225 328.537L281.363 331.401L281.397 332.124Z" fill="#FFB6B6"/>
<path d="M284.786 245.039L290.567 278.96L285.849 312.34L285.114 317.535L283.815 326.709L283.415 329.531L283.428 329.836L283.526 332.124H267.183L266.581 325.888L266.529 325.329L265.299 312.555L265.278 312.34L262.667 285.253L267.785 265.675L268.164 264.234V264.23L270.39 230.708L268.666 215.474L268.649 215.332C268.683 215.354 268.713 215.375 268.747 215.397C268.838 215.453 268.928 215.509 269.014 215.569C279.061 221.943 285.048 233.125 284.786 245.039Z" fill="#DA4167"/>
<path d="M216.297 232.455L210.012 225.955C210.012 225.955 196.558 232.02 195.887 235.385C195.217 238.75 171.462 288.173 171.462 288.173L161.127 260.571L147.674 269.552C147.674 269.552 158.469 312.407 168.564 314.419C178.659 316.431 212.493 263.696 212.493 263.696L216.297 232.455Z" fill="#DA4167"/>
<path d="M471.491 312.042H-17.9389C-24.8664 312.042 -30.5 317.681 -30.5 324.608C-30.5 331.536 -24.8664 337.17 -17.9389 337.17H471.491C478.418 337.17 484.057 331.536 484.057 324.608C484.057 317.681 478.418 312.042 471.491 312.042Z" fill="#3D2645"/>
<path d="M277.306 273.748L276.355 318.153C276.263 322.451 272.752 325.888 268.452 325.888H186.768C182.571 325.888 179.105 322.606 178.876 318.415L176.448 274.01C176.201 269.482 179.806 265.675 184.341 265.675H269.404C273.835 265.675 277.401 269.318 277.306 273.748Z" fill="#832161"/>
<path d="M145.441 200.965C156.234 200.965 164.984 192.216 164.984 181.422C164.984 170.629 156.234 161.879 145.441 161.879C134.647 161.879 125.897 170.629 125.897 181.422C125.897 192.216 134.647 200.965 145.441 200.965Z" fill="#FFB6B6"/>
<path d="M112.754 232.557L114.904 255.782L129.527 314.705L116.894 319.133L95.5499 254.922L92.6019 229.117L112.754 232.557Z" fill="#FFB6B6"/>
<path d="M131.856 326.188C140.38 326.188 147.29 323.131 147.29 319.361C147.29 315.591 140.38 312.534 131.856 312.534C123.332 312.534 116.422 315.591 116.422 319.361C116.422 323.131 123.332 326.188 131.856 326.188Z" fill="#FFB6B6"/>
<path d="M322.081 314.731C316.621 317.836 313.798 323.17 315.775 326.644C317.752 330.118 323.779 330.416 329.24 327.309C331.438 326.098 333.315 324.378 334.712 322.293L357.678 308.844L351.137 298.201L329.191 312.589C326.684 312.725 324.246 313.459 322.081 314.731Z" fill="#FFB6B6"/>
<path d="M82.4323 236.108L91.2492 189.118C91.2492 189.118 115.764 185.677 116.625 193.849C117.485 202.021 116.01 241.958 116.01 241.958L82.4323 236.108Z" fill="#832161"/>
<path d="M137.552 184.495C137.552 184.495 149.641 180.18 154.74 177.859C159.84 175.537 169.971 191.73 170.196 183.178C170.422 174.626 166.921 171.04 166.921 171.04C166.921 171.04 166.047 152.332 147.199 154.671C147.199 154.671 151.345 145.311 137.736 143.864C124.128 142.416 102.956 175.279 104.852 180.19C106.748 185.101 109.021 189.161 103.642 194.412C98.2627 199.663 88.1899 229.299 95.8537 237.274C103.518 245.248 104.02 248.709 98.7695 253.67C93.5186 258.632 81.1068 269.419 94.5268 271.292C107.947 273.165 93.299 271.766 103.304 262.966C113.309 254.165 127.908 254.525 122.457 240.405C117.006 226.286 126.476 206.053 125.291 202.983C124.106 199.914 127.946 180.423 127.946 180.423C127.946 180.423 136.883 179.11 137.552 184.495Z" fill="#3D2645"/>
<path d="M237.337 208.092C249.086 208.092 258.611 198.567 258.611 186.818C258.611 175.068 249.086 165.544 237.337 165.544C225.588 165.544 216.063 175.068 216.063 186.818C216.063 198.567 225.588 208.092 237.337 208.092Z" fill="#A0616A"/>
<path d="M239.035 158.216C238.419 158.576 237.595 158.032 237.398 157.347C237.2 156.662 237.43 155.935 237.658 155.26L238.806 151.86C239.62 149.449 240.484 146.953 242.247 145.118C244.908 142.348 249.137 141.643 252.944 142.154C257.833 142.809 262.657 145.457 264.93 149.834C267.204 154.212 266.236 160.321 262.128 163.052C267.982 169.762 270.023 177.24 269.701 186.139C269.379 195.038 259.681 203.228 253.357 209.497C251.945 208.641 250.661 204.628 251.437 203.171C252.214 201.713 251.101 200.025 252.063 198.682C253.025 197.34 253.83 199.477 252.857 198.142C252.244 197.3 254.638 195.362 253.726 194.858C249.315 192.42 247.848 186.921 245.077 182.71C241.735 177.631 236.015 174.191 229.962 173.62C226.627 173.306 223.105 173.875 220.372 175.811C217.639 177.747 215.87 181.206 216.503 184.495C214.862 182.829 214.045 180.386 214.353 178.067C214.661 175.749 216.088 173.604 218.108 172.424C216.88 168.363 217.932 163.691 220.782 160.549C223.632 157.406 235.195 157.941 239.357 158.768L239.035 158.216Z" fill="#3D2645"/>
<path d="M239.681 173.744C245.193 174.339 249.172 179.113 252.533 183.522C254.47 186.063 256.499 188.87 256.45 192.065C256.401 195.295 254.241 198.065 253.209 201.127C251.522 206.13 253.166 212.083 257.182 215.512C253.214 216.265 248.924 213.289 248.239 209.309C247.442 204.675 250.954 200.203 250.538 195.519C250.172 191.393 246.92 188.217 244.156 185.132C241.391 182.047 238.795 177.953 240.067 174.011L239.681 173.744Z" fill="#3D2645"/>
<path d="M443.121 282.889C442.438 294.565 439.725 298.252 438.775 312.042C438.568 315.069 438.443 318.583 438.443 322.774C438.443 323.843 438.449 324.876 438.449 325.885C438.449 328.034 438.408 330.064 438.158 332.124C437.968 333.768 437.642 335.424 437.102 337.17H384.37C384.364 337.158 384.364 337.146 384.358 337.134C384.05 335.793 383.854 334.51 383.705 333.282C383.658 332.89 383.616 332.504 383.581 332.124C383.533 331.679 383.491 331.24 383.45 330.806C383.29 329.079 383.13 327.446 382.749 325.885C382.239 323.73 381.313 321.7 379.413 319.741C378.636 318.94 377.858 318.316 377.098 317.77C376.95 317.669 376.807 317.568 376.659 317.467C374.558 316.025 372.569 314.986 370.847 312.042C370.818 312 370.794 311.953 370.77 311.911C370.473 311.395 369.702 310.041 369.144 308.237C368.556 306.361 368.2 304.004 368.841 301.594C370.367 295.883 376.018 295.314 380.636 289.543C381.135 288.92 381.628 288.232 382.097 287.466C384.186 284.07 384.75 281.079 385.415 277.523C385.522 276.947 385.617 276.377 385.694 275.825C385.753 275.409 385.807 275 385.849 274.596C386.216 271.206 386.038 268.286 385.605 265.674C384.192 257.12 380.025 251.825 382.969 244.149C383.895 241.739 385.207 239.928 386.531 238.379C389.333 235.096 392.212 232.965 391.713 228.727C391.208 224.453 387.967 223.865 387.606 220.131C387.421 218.244 388.039 216.255 389.196 214.302V214.296C392.901 208.009 402.149 202.222 408.026 202.406C409.112 202.435 410.074 202.679 410.875 203.148C413.778 204.857 412.567 208.591 417.014 213.827C420.32 217.715 424.059 219.271 425.479 220.006C431.1 222.939 435.671 231.588 438.775 242.647C438.799 242.73 438.823 242.813 438.847 242.903C440.764 249.83 442.118 257.696 442.789 265.674C443.073 269.052 443.24 272.447 443.275 275.807C443.305 278.49 443.245 280.817 443.121 282.889Z" fill="#832161"/>
<path d="M399.838 216.109C399.151 215.837 393.13 213.556 387.632 216.567C381.317 220.026 380.341 227.921 379.999 230.69C379.209 237.087 381.537 238.521 382.029 244.997C382.948 257.113 385.373 243.291 381.501 248.821C380.161 250.735 366.472 280.401 358.923 286.211C344.24 297.512 334.917 305.471 334.917 305.471L345.561 317.033C345.561 317.033 362.38 312.552 377.246 302.899C392.495 292.997 400.12 288.046 406.019 278.361C406.527 277.527 418.681 256.887 412.154 234.063C410.665 228.857 407.937 219.318 399.838 216.109Z" fill="#832161"/>
<path d="M472.799 273.748L471.848 318.153C471.756 322.451 468.245 325.888 463.945 325.888H382.261C378.063 325.888 374.598 322.606 374.369 318.415L371.941 274.01C371.694 269.482 375.299 265.675 379.834 265.675H464.897C469.328 265.675 472.894 269.318 472.799 273.748Z" fill="#3D2645"/>
<path d="M14 127.158C-4.96756 127.158 -20.3438 142.534 -20.3438 161.5C-20.3438 180.466 -4.96756 195.842 14 195.842C32.9676 195.842 48.3438 180.466 48.3438 161.5C48.3438 142.534 32.9676 127.158 14 127.158ZM14 190.936C-2.25686 190.936 -15.4375 177.756 -15.4375 161.5C-15.4375 145.244 -2.25686 132.064 14 132.064C30.2569 132.064 43.4375 145.244 43.4375 161.5C43.4375 177.756 30.2569 190.936 14 190.936Z" fill="#3D2645"/>
<path d="M82.6875 141.876H69.5118C68.8176 139.906 68.0276 137.983 67.1322 136.117L76.4492 126.803C80.2785 122.971 80.2736 116.755 76.4443 112.924L62.5645 99.0498C58.7352 95.2207 52.5214 95.2183 48.6921 99.0498L39.3751 108.366C37.5108 107.476 35.59 106.686 33.625 105.992V92.8119C33.6226 87.3933 29.2266 83.0025 23.8076 83L4.18259 83.0025C-1.23391 83.0025 -5.62991 87.3933 -5.62991 92.8119V105.994C-7.59486 106.688 -9.51566 107.476 -11.38 108.369L-20.6945 99.0547C-24.5263 95.2232 -30.7401 95.2256 -34.5719 99.0572L-48.4492 112.934C-52.281 116.765 -52.281 122.976 -48.4492 126.808L-39.1347 136.122C-40.0252 137.986 -40.8175 139.909 -41.5118 141.876H-54.6875C-60.1065 141.876 -64.5 146.27 -64.5 151.688V171.312C-64.5 176.731 -60.1065 181.124 -54.6875 181.124H-41.5118C-40.8175 183.094 -40.0276 185.017 -39.1322 186.883L-48.4492 196.197C-52.2785 200.029 -52.2736 206.245 -48.4443 210.076L-34.5645 223.95C-30.7352 227.779 -24.5214 227.782 -20.6921 223.95L-11.3751 214.634C-9.51075 215.524 -7.58995 216.314 -5.625 217.008V230.188C-5.62254 235.607 -1.22654 239.998 4.19241 240L23.8174 239.998C29.2339 239.998 33.6299 235.607 33.6299 230.188V217.006C35.5949 216.312 37.5157 215.524 39.38 214.631L48.6946 223.945C52.5263 227.777 58.7426 227.774 62.5719 223.943L76.4492 210.066C80.281 206.235 80.281 200.024 76.4492 196.192L67.1347 186.878C68.0252 185.014 68.8176 183.091 69.5118 181.124H82.6875C88.1065 181.124 92.5 176.731 92.5 171.312V151.688C92.5 146.27 88.1065 141.876 82.6875 141.876ZM87.5938 171.312C87.5938 174.02 85.3958 176.218 82.6875 176.218C82.6875 176.218 70.1152 176.218 67.9688 176.218C65.8223 176.218 65.4298 177.879 65.155 178.695C64.8803 179.515 64.5883 180.324 64.2744 181.124C64.007 181.813 63.7248 182.495 63.428 183.17C63.0993 183.92 62.7559 184.659 62.3928 185.387C61.9905 186.201 61.0926 187.771 63.065 189.744C65.0373 191.716 72.9805 199.658 72.9805 199.658C74.8939 201.574 74.8964 204.68 72.9805 206.595L59.1032 220.472C57.1873 222.388 54.0792 222.388 52.1633 220.474C52.1633 220.474 44.355 212.667 42.1913 210.503C40.0277 208.34 38.8992 209.384 38.1829 209.743C37.3587 210.155 36.5197 210.547 35.6734 210.92C35.0012 211.217 34.3192 211.494 33.6324 211.764C32.8719 212.061 32.1065 212.34 31.3313 212.603C30.4703 212.897 28.7188 213.012 28.7188 215.465C28.7188 217.918 28.7237 230.188 28.7237 230.188C28.7212 232.896 26.5281 235.094 23.8174 235.094H4.19241C1.48171 235.092 -0.716293 232.896 -0.718746 230.188C-0.718746 230.188 -0.718746 217.879 -0.718746 215.465C-0.718746 213.052 -2.17345 212.988 -2.89221 212.755C-3.81459 212.448 -4.7247 212.122 -5.625 211.771C-6.31187 211.504 -6.99385 211.224 -7.666 210.927C-8.45836 210.579 -9.24335 210.214 -10.0136 209.828C-10.7864 209.446 -12.1945 208.516 -14.2821 210.604C-16.3697 212.691 -24.1584 220.482 -24.1584 220.482C-26.0718 222.393 -29.1775 222.397 -31.0958 220.482L-44.9731 206.608C-46.889 204.687 -46.889 201.582 -44.978 199.666C-44.978 199.666 -36.8803 191.569 -35.06 189.748C-33.2398 187.928 -33.8629 186.437 -34.2137 185.743C-34.6381 184.899 -35.0404 184.043 -35.4207 183.174C-35.7175 182.5 -35.9971 181.813 -36.2694 181.124C-36.5834 180.324 -36.8754 179.515 -37.1501 178.695C-37.4249 177.879 -37.8174 176.218 -39.9638 176.218C-42.1103 176.218 -54.6826 176.218 -54.6826 176.218C-57.3908 176.218 -59.5888 174.02 -59.5888 171.312V151.688C-59.5888 148.98 -57.3908 146.782 -54.6826 146.782C-54.6826 146.782 -42.1103 146.782 -39.9638 146.782C-37.8174 146.782 -37.4249 145.122 -37.1501 144.305C-36.8754 143.485 -36.5834 142.676 -36.2694 141.876C-36.002 141.187 -35.7199 140.505 -35.4231 139.83C-35.0944 139.08 -34.751 138.341 -34.3879 137.613C-33.9856 136.799 -33.0877 135.229 -35.06 133.256C-37.0324 131.284 -44.9756 123.342 -44.9756 123.342C-46.889 121.426 -46.8915 118.32 -44.9756 116.405L-31.0983 102.528C-29.1824 100.612 -26.0742 100.612 -24.1584 102.526C-24.1584 102.526 -16.3501 110.333 -14.1864 112.497C-12.0227 114.661 -10.8943 113.616 -10.178 113.257C-9.35375 112.845 -8.51478 112.453 -7.66845 112.08C-6.9963 111.783 -6.31432 111.506 -5.62745 111.236C-4.86698 110.939 -4.10161 110.66 -3.32642 110.397C-2.47028 110.103 -0.718746 109.988 -0.718746 107.535C-0.718746 105.082 -0.72366 92.8119 -0.72366 92.8119C-0.721207 90.1038 1.47189 87.9059 4.18259 87.9059H23.8076C26.5183 87.9084 28.7163 90.1038 28.7188 92.8119C28.7188 92.8119 28.7188 105.121 28.7188 107.535C28.7188 109.948 30.1735 110.012 30.8922 110.245C31.8146 110.552 32.7247 110.878 33.625 111.229C34.3119 111.496 34.9939 111.776 35.666 112.073C36.4584 112.421 37.2434 112.786 38.0137 113.172C38.7864 113.554 40.1945 114.484 42.2821 112.396C44.3697 110.309 52.1584 102.518 52.1584 102.518C54.0718 100.607 57.1775 100.603 59.0958 102.518L72.9731 116.392C74.889 118.313 74.889 121.418 72.978 123.334C72.978 123.334 64.8803 131.431 63.0601 133.252C61.2398 135.072 61.8629 136.563 62.2137 137.257C62.6381 138.101 63.0404 138.957 63.4207 139.826C63.7175 140.5 63.9971 141.187 64.2694 141.876C64.5835 142.676 64.8754 143.485 65.1501 144.305C65.4249 145.122 65.8174 146.782 67.9639 146.782C70.1103 146.782 82.6826 146.782 82.6826 146.782C85.3909 146.782 87.5889 148.98 87.5889 151.688V171.312H87.5938Z" fill="#3D2645"/>
<path d="M87.5938 171.312V151.688C87.5938 148.98 85.3958 146.782 82.6875 146.782C82.6875 146.782 70.1152 146.782 67.9688 146.782C65.8223 146.782 65.4298 145.122 65.155 144.305C64.8803 143.485 64.5883 142.676 64.2744 141.876C64.0045 141.187 63.7224 140.5 63.4256 139.826C63.0453 138.957 62.643 138.101 62.2186 137.257C61.8654 136.563 61.2447 135.072 63.065 133.252C64.8852 131.431 72.9829 123.334 72.9829 123.334C74.8939 121.418 74.8939 118.313 72.978 116.392L59.1007 102.518C57.1824 100.603 54.0767 100.607 52.1633 102.518C52.1633 102.518 44.3746 110.309 42.287 112.396C40.1994 114.484 38.7913 113.557 38.0186 113.172C37.2483 112.786 36.4633 112.418 35.6709 112.073C34.9987 111.776 34.3168 111.499 33.6299 111.229C32.7296 110.876 31.8195 110.552 30.8971 110.245C30.1735 110.012 28.7188 109.948 28.7188 107.535C28.7188 105.121 28.7188 92.8119 28.7188 92.8119C28.7163 90.1038 26.5208 87.9084 23.8076 87.9059H4.18259C1.47189 87.9059 -0.721207 90.1038 -0.72366 92.8119C-0.72366 92.8119 -0.718746 105.082 -0.718746 107.535C-0.718746 109.988 -2.47028 110.103 -3.32887 110.395C-4.1016 110.655 -4.86943 110.937 -5.6299 111.234C-6.31678 111.501 -6.99874 111.781 -7.6709 112.078C-8.51968 112.45 -9.35865 112.843 -10.1805 113.255C-10.8968 113.613 -12.0227 114.661 -14.1889 112.495C-16.355 110.329 -24.1608 102.523 -24.1608 102.523C-26.0767 100.61 -29.1848 100.61 -31.1007 102.526L-44.978 116.402C-46.8939 118.318 -46.8915 121.423 -44.978 123.339C-44.978 123.339 -37.0373 131.279 -35.0625 133.254C-33.0877 135.229 -33.988 136.796 -34.3903 137.611C-34.751 138.339 -35.0968 139.08 -35.4256 139.828C-35.7224 140.503 -36.002 141.184 -36.2719 141.874C-36.5859 142.673 -36.8778 143.483 -37.1526 144.302C-37.4273 145.119 -37.8198 146.78 -39.9663 146.78C-42.1128 146.78 -54.685 146.78 -54.685 146.78C-57.3933 146.78 -59.5913 148.978 -59.5913 151.686V171.309C-59.5913 174.018 -57.3933 176.215 -54.685 176.215C-54.685 176.215 -42.1128 176.215 -39.9663 176.215C-37.8198 176.215 -37.4273 177.876 -37.1526 178.693C-36.8778 179.512 -36.5859 180.322 -36.2719 181.121C-36.002 181.811 -35.7199 182.497 -35.4231 183.172C-35.0429 184.04 -34.6406 184.896 -34.2162 185.74C-33.8629 186.434 -33.2423 187.926 -35.0625 189.746C-36.8827 191.566 -44.9805 199.663 -44.9805 199.663C-46.8915 201.579 -46.8915 204.685 -44.9756 206.605L-31.0983 220.479C-29.1799 222.395 -26.0742 222.39 -24.1608 220.479C-24.1608 220.479 -16.3721 212.689 -14.2845 210.601C-12.1969 208.514 -10.7888 209.441 -10.0161 209.826C-9.24581 210.211 -8.46081 210.579 -7.66845 210.925C-6.9963 211.222 -6.31432 211.499 -5.62745 211.769C-4.72715 212.122 -3.81704 212.446 -2.89467 212.752C-2.17345 212.988 -0.718746 213.052 -0.718746 215.465C-0.718746 217.879 -0.718746 230.188 -0.718746 230.188C-0.716293 232.896 1.47926 235.092 4.19241 235.094H23.8174C26.5281 235.094 28.7212 232.896 28.7237 230.188C28.7237 230.188 28.7188 217.918 28.7188 215.465C28.7188 213.012 30.4703 212.897 31.3289 212.605C32.1016 212.345 32.8694 212.063 33.6299 211.766C34.3168 211.499 34.9987 211.219 35.6709 210.922C36.5197 210.55 37.3587 210.157 38.1805 209.745C38.8968 209.387 40.0228 208.34 42.1889 210.505C44.355 212.671 52.1608 220.477 52.1608 220.477C54.0767 222.39 57.1848 222.39 59.1007 220.474L72.978 206.598C74.8939 204.682 74.8915 201.577 72.978 199.661C72.978 199.661 65.0373 191.721 63.0625 189.746C61.0877 187.771 61.988 186.204 62.3904 185.389C62.751 184.661 63.0968 183.92 63.4256 183.172C63.7224 182.497 64.002 181.816 64.2719 181.126C64.5859 180.327 64.8778 179.517 65.1526 178.698C65.4273 177.881 65.8198 176.22 67.9663 176.22C70.1128 176.22 82.685 176.22 82.685 176.22C85.3958 176.218 87.5938 174.022 87.5938 171.312ZM14 195.842C-4.96756 195.842 -20.3438 180.466 -20.3438 161.5C-20.3438 142.534 -4.96756 127.158 14 127.158C32.9676 127.158 48.3438 142.534 48.3438 161.5C48.3438 180.466 32.9676 195.842 14 195.842Z" fill="#3D2645"/>
<path d="M488 174.158C469.032 174.158 453.656 189.534 453.656 208.5C453.656 227.466 469.032 242.842 488 242.842C506.968 242.842 522.344 227.466 522.344 208.5C522.344 189.534 506.968 174.158 488 174.158ZM488 237.936C471.743 237.936 458.562 224.756 458.562 208.5C458.562 192.244 471.743 179.064 488 179.064C504.257 179.064 517.438 192.244 517.438 208.5C517.438 224.756 504.257 237.936 488 237.936Z" fill="#3D2645"/>
<path d="M556.688 188.876H543.512C542.818 186.906 542.028 184.983 541.132 183.117L550.449 173.803C554.279 169.971 554.274 163.755 550.444 159.924L536.565 146.05C532.735 142.221 526.521 142.218 522.692 146.05L513.375 155.366C511.511 154.476 509.59 153.686 507.625 152.992V139.812C507.623 134.393 503.227 130.002 497.808 130L478.183 130.002C472.766 130.002 468.37 134.393 468.37 139.812V152.994C466.405 153.688 464.484 154.476 462.62 155.369L453.305 146.055C449.474 142.223 443.26 142.226 439.428 146.057L425.551 159.934C421.719 163.765 421.719 169.976 425.551 173.808L434.865 183.122C433.975 184.986 433.182 186.909 432.488 188.876H419.312C413.894 188.876 409.5 193.27 409.5 198.688V218.312C409.5 223.731 413.894 228.124 419.312 228.124H432.488C433.182 230.094 433.972 232.017 434.868 233.883L425.551 243.197C421.721 247.029 421.726 253.245 425.556 257.076L439.435 270.95C443.265 274.779 449.479 274.782 453.308 270.95L462.625 261.634C464.489 262.524 466.41 263.314 468.375 264.008V277.188C468.377 282.607 472.773 286.998 478.192 287L497.817 286.998C503.234 286.998 507.63 282.607 507.63 277.188V264.006C509.595 263.312 511.516 262.524 513.38 261.631L522.695 270.945C526.526 274.777 532.743 274.774 536.572 270.943L550.449 257.066C554.281 253.235 554.281 247.024 550.449 243.192L541.135 233.878C542.025 232.014 542.818 230.091 543.512 228.124H556.688C562.106 228.124 566.5 223.731 566.5 218.312V198.688C566.5 193.27 562.106 188.876 556.688 188.876ZM561.594 218.312C561.594 221.02 559.396 223.218 556.688 223.218C556.688 223.218 544.115 223.218 541.969 223.218C539.822 223.218 539.43 224.879 539.155 225.695C538.88 226.515 538.588 227.324 538.274 228.124C538.007 228.813 537.725 229.495 537.428 230.17C537.099 230.92 536.756 231.659 536.393 232.387C535.99 233.201 535.093 234.771 537.065 236.744C539.037 238.716 546.98 246.658 546.98 246.658C548.894 248.574 548.896 251.68 546.98 253.595L533.103 267.472C531.187 269.388 528.079 269.388 526.163 267.474C526.163 267.474 518.355 259.667 516.191 257.503C514.028 255.34 512.899 256.384 512.183 256.743C511.359 257.155 510.52 257.547 509.673 257.92C509.001 258.217 508.319 258.494 507.632 258.764C506.872 259.061 506.107 259.34 505.331 259.603C504.47 259.897 502.719 260.012 502.719 262.465C502.719 264.918 502.724 277.188 502.724 277.188C502.721 279.896 500.528 282.094 497.817 282.094H478.192C475.482 282.092 473.284 279.896 473.281 277.188C473.281 277.188 473.281 264.879 473.281 262.465C473.281 260.052 471.827 259.988 471.108 259.755C470.185 259.448 469.275 259.122 468.375 258.771C467.688 258.504 467.006 258.224 466.334 257.927C465.542 257.579 464.757 257.214 463.986 256.828C463.214 256.446 461.806 255.516 459.718 257.604C457.63 259.691 449.842 267.482 449.842 267.482C447.928 269.393 444.823 269.397 442.904 267.482L429.027 253.608C427.111 251.687 427.111 248.582 429.022 246.666C429.022 246.666 437.12 238.569 438.94 236.748C440.76 234.928 440.137 233.437 439.786 232.743C439.362 231.899 438.96 231.043 438.579 230.174C438.283 229.5 438.003 228.813 437.731 228.124C437.417 227.324 437.125 226.515 436.85 225.695C436.575 224.879 436.183 223.218 434.036 223.218C431.89 223.218 419.317 223.218 419.317 223.218C416.609 223.218 414.411 221.02 414.411 218.312V198.688C414.411 195.98 416.609 193.782 419.317 193.782C419.317 193.782 431.89 193.782 434.036 193.782C436.183 193.782 436.575 192.122 436.85 191.305C437.125 190.485 437.417 189.676 437.731 188.876C437.998 188.187 438.28 187.505 438.577 186.83C438.906 186.08 439.249 185.341 439.612 184.613C440.014 183.799 440.912 182.229 438.94 180.256C436.968 178.284 429.024 170.342 429.024 170.342C427.111 168.426 427.109 165.32 429.024 163.405L442.902 149.528C444.818 147.612 447.926 147.612 449.842 149.526C449.842 149.526 457.65 157.333 459.814 159.497C461.977 161.661 463.106 160.616 463.822 160.257C464.646 159.845 465.485 159.453 466.332 159.08C467.004 158.783 467.686 158.506 468.373 158.236C469.133 157.939 469.898 157.66 470.674 157.397C471.53 157.103 473.281 156.988 473.281 154.535C473.281 152.082 473.276 139.812 473.276 139.812C473.279 137.104 475.472 134.906 478.183 134.906H497.808C500.518 134.908 502.716 137.104 502.719 139.812C502.719 139.812 502.719 152.121 502.719 154.535C502.719 156.948 504.173 157.012 504.892 157.245C505.815 157.552 506.725 157.878 507.625 158.229C508.312 158.496 508.994 158.776 509.666 159.073C510.458 159.421 511.243 159.786 512.014 160.172C512.786 160.554 514.194 161.484 516.282 159.396C518.37 157.309 526.158 149.518 526.158 149.518C528.072 147.607 531.177 147.603 533.096 149.518L546.973 163.392C548.889 165.313 548.889 168.418 546.978 170.334C546.978 170.334 538.88 178.431 537.06 180.252C535.24 182.072 535.863 183.563 536.214 184.257C536.638 185.101 537.04 185.957 537.421 186.826C537.717 187.5 537.997 188.187 538.269 188.876C538.583 189.676 538.875 190.485 539.15 191.305C539.425 192.122 539.817 193.782 541.964 193.782C544.11 193.782 556.683 193.782 556.683 193.782C559.391 193.782 561.589 195.98 561.589 198.688V218.312H561.594Z" fill="#3D2645"/>
<path d="M561.594 218.312V198.688C561.594 195.98 559.396 193.782 556.688 193.782C556.688 193.782 544.115 193.782 541.969 193.782C539.822 193.782 539.43 192.122 539.155 191.305C538.88 190.485 538.588 189.676 538.274 188.876C538.005 188.187 537.722 187.5 537.426 186.826C537.045 185.957 536.643 185.101 536.219 184.257C535.865 183.563 535.245 182.072 537.065 180.252C538.885 178.431 546.983 170.334 546.983 170.334C548.894 168.418 548.894 165.313 546.978 163.392L533.101 149.518C531.182 147.603 528.077 147.607 526.163 149.518C526.163 149.518 518.375 157.309 516.287 159.396C514.199 161.484 512.791 160.557 512.019 160.172C511.248 159.786 510.463 159.418 509.671 159.073C508.999 158.776 508.317 158.499 507.63 158.229C506.73 157.876 505.82 157.552 504.897 157.245C504.173 157.012 502.719 156.948 502.719 154.535C502.719 152.121 502.719 139.812 502.719 139.812C502.716 137.104 500.521 134.908 497.808 134.906H478.183C475.472 134.906 473.279 137.104 473.276 139.812C473.276 139.812 473.281 152.082 473.281 154.535C473.281 156.988 471.53 157.103 470.671 157.395C469.898 157.655 469.131 157.937 468.37 158.234C467.683 158.501 467.001 158.781 466.329 159.078C465.48 159.45 464.641 159.843 463.82 160.255C463.103 160.613 461.977 161.661 459.811 159.495C457.645 157.329 449.839 149.523 449.839 149.523C447.923 147.61 444.815 147.61 442.899 149.526L429.022 163.402C427.106 165.318 427.109 168.423 429.022 170.339C429.022 170.339 436.963 178.279 438.938 180.254C440.912 182.229 440.012 183.796 439.61 184.611C439.249 185.339 438.903 186.08 438.574 186.828C438.278 187.503 437.998 188.184 437.728 188.874C437.414 189.673 437.122 190.483 436.847 191.302C436.573 192.119 436.18 193.78 434.034 193.78C431.887 193.78 419.315 193.78 419.315 193.78C416.607 193.78 414.409 195.978 414.409 198.686V218.309C414.409 221.018 416.607 223.215 419.315 223.215C419.315 223.215 431.887 223.215 434.034 223.215C436.18 223.215 436.573 224.876 436.847 225.693C437.122 226.512 437.414 227.322 437.728 228.121C437.998 228.811 438.28 229.497 438.577 230.172C438.957 231.04 439.359 231.896 439.784 232.74C440.137 233.434 440.758 234.926 438.938 236.746C437.117 238.566 429.02 246.663 429.02 246.663C427.109 248.579 427.109 251.685 429.024 253.605L442.902 267.479C444.82 269.395 447.926 269.39 449.839 267.479C449.839 267.479 457.628 259.689 459.715 257.601C461.803 255.514 463.211 256.441 463.984 256.826C464.754 257.211 465.539 257.579 466.332 257.925C467.004 258.222 467.686 258.499 468.373 258.769C469.273 259.122 470.183 259.446 471.105 259.752C471.827 259.988 473.281 260.052 473.281 262.465C473.281 264.879 473.281 277.188 473.281 277.188C473.284 279.896 475.479 282.092 478.192 282.094H497.817C500.528 282.094 502.721 279.896 502.724 277.188C502.724 277.188 502.719 264.918 502.719 262.465C502.719 260.012 504.47 259.897 505.329 259.605C506.102 259.345 506.869 259.063 507.63 258.766C508.317 258.499 508.999 258.219 509.671 257.922C510.52 257.55 511.359 257.157 512.18 256.745C512.897 256.387 514.023 255.34 516.189 257.505C518.355 259.671 526.161 267.477 526.161 267.477C528.077 269.39 531.185 269.39 533.101 267.474L546.978 253.598C548.894 251.682 548.891 248.577 546.978 246.661C546.978 246.661 539.037 238.721 537.063 236.746C535.088 234.771 535.988 233.204 536.39 232.389C536.751 231.661 537.097 230.92 537.426 230.172C537.722 229.497 538.002 228.816 538.272 228.126C538.586 227.327 538.878 226.517 539.153 225.698C539.427 224.881 539.82 223.22 541.966 223.22C544.113 223.22 556.685 223.22 556.685 223.22C559.396 223.218 561.594 221.022 561.594 218.312ZM488 242.842C469.032 242.842 453.656 227.466 453.656 208.5C453.656 189.534 469.032 174.158 488 174.158C506.968 174.158 522.344 189.534 522.344 208.5C522.344 227.466 506.968 242.842 488 242.842Z" fill="#3D2645"/>
<path d="M49 267.158C30.0324 267.158 14.6562 282.534 14.6562 301.5C14.6562 320.466 30.0324 335.842 49 335.842C67.9676 335.842 83.3438 320.466 83.3438 301.5C83.3438 282.534 67.9676 267.158 49 267.158ZM49 330.936C32.7431 330.936 19.5625 317.756 19.5625 301.5C19.5625 285.244 32.7431 272.064 49 272.064C65.2569 272.064 78.4375 285.244 78.4375 301.5C78.4375 317.756 65.2569 330.936 49 330.936Z" fill="#3D2645"/>
<path d="M117.688 281.876H104.512C103.818 279.906 103.028 277.983 102.132 276.117L111.449 266.803C115.279 262.971 115.274 256.755 111.444 252.924L97.5645 239.05C93.7352 235.221 87.5214 235.218 83.6921 239.05L74.3751 248.366C72.5108 247.476 70.59 246.686 68.625 245.992V232.812C68.6226 227.393 64.2266 223.002 58.8076 223L39.1826 223.002C33.7661 223.002 29.3701 227.393 29.3701 232.812V245.994C27.4051 246.688 25.4843 247.476 23.62 248.369L14.3055 239.055C10.4737 235.223 4.25991 235.226 0.428125 239.057L-13.4492 252.934C-17.281 256.765 -17.281 262.976 -13.4492 266.808L-4.13469 276.122C-5.02517 277.986 -5.81753 279.909 -6.51176 281.876H-19.6875C-25.1065 281.876 -29.5 286.27 -29.5 291.688V311.312C-29.5 316.731 -25.1065 321.124 -19.6875 321.124H-6.51176C-5.81753 323.094 -5.02762 325.017 -4.13223 326.883L-13.4492 336.197C-17.2785 340.029 -17.2736 346.245 -13.4443 350.076L0.435486 363.95C4.26482 367.779 10.4786 367.782 14.3079 363.95L23.6249 354.634C25.4893 355.524 27.41 356.314 29.375 357.008V370.188C29.3775 375.607 33.7735 379.998 39.1924 380L58.8174 379.998C64.2339 379.998 68.6299 375.607 68.6299 370.188V357.006C70.5949 356.312 72.5157 355.524 74.38 354.631L83.6946 363.945C87.5263 367.777 93.7426 367.774 97.5719 363.943L111.449 350.066C115.281 346.235 115.281 340.024 111.449 336.192L102.135 326.878C103.025 325.014 103.818 323.091 104.512 321.124H117.688C123.106 321.124 127.5 316.731 127.5 311.312V291.688C127.5 286.27 123.106 281.876 117.688 281.876ZM122.594 311.312C122.594 314.02 120.396 316.218 117.688 316.218C117.688 316.218 105.115 316.218 102.969 316.218C100.822 316.218 100.43 317.879 100.155 318.695C99.8803 319.515 99.5883 320.324 99.2744 321.124C99.007 321.813 98.7248 322.495 98.428 323.17C98.0993 323.92 97.7559 324.659 97.3928 325.387C96.9905 326.201 96.0926 327.771 98.065 329.744C100.037 331.716 107.98 339.658 107.98 339.658C109.894 341.574 109.896 344.68 107.98 346.595L94.1032 360.472C92.1873 362.388 89.0792 362.388 87.1633 360.474C87.1633 360.474 79.355 352.667 77.1913 350.503C75.0277 348.34 73.8992 349.384 73.1829 349.743C72.3587 350.155 71.5197 350.547 70.6734 350.92C70.0012 351.217 69.3192 351.494 68.6324 351.764C67.8719 352.061 67.1065 352.34 66.3313 352.603C65.4703 352.897 63.7188 353.012 63.7188 355.465C63.7188 357.918 63.7237 370.188 63.7237 370.188C63.7212 372.896 61.5281 375.094 58.8174 375.094H39.1924C36.4817 375.092 34.2837 372.896 34.2813 370.188C34.2813 370.188 34.2813 357.879 34.2813 355.465C34.2813 353.052 32.8266 352.988 32.1078 352.755C31.1854 352.448 30.2753 352.122 29.375 351.771C28.6881 351.504 28.0062 351.224 27.334 350.927C26.5416 350.579 25.7566 350.214 24.9864 349.828C24.2136 349.446 22.8055 348.516 20.7179 350.604C18.6303 352.691 10.8416 360.482 10.8416 360.482C8.9282 362.393 5.82255 362.397 3.9042 360.482L-9.97312 346.608C-11.889 344.687 -11.889 341.582 -9.97803 339.666C-9.97803 339.666 -1.88026 331.569 -0.0600433 329.748C1.76018 327.928 1.13708 326.437 0.786282 325.743C0.361891 324.899 -0.0404205 324.043 -0.420654 323.174C-0.717484 322.5 -0.997139 321.813 -1.26944 321.124C-1.58344 320.324 -1.87536 319.515 -2.15011 318.695C-2.42486 317.879 -2.81736 316.218 -4.96384 316.218C-7.11033 316.218 -19.6826 316.218 -19.6826 316.218C-22.3908 316.218 -24.5888 314.02 -24.5888 311.312V291.688C-24.5888 288.98 -22.3908 286.782 -19.6826 286.782C-19.6826 286.782 -7.11033 286.782 -4.96384 286.782C-2.81736 286.782 -2.42486 285.122 -2.15011 284.305C-1.87536 283.485 -1.58344 282.676 -1.26944 281.876C-1.00204 281.187 -0.719938 280.505 -0.423111 279.83C-0.0943909 279.08 0.249048 278.341 0.61211 277.613C1.01442 276.799 1.91227 275.229 -0.0600433 273.256C-2.03236 271.284 -9.97558 263.342 -9.97558 263.342C-11.889 261.426 -11.8915 258.32 -9.97558 256.405L3.90175 242.528C5.81764 240.612 8.92575 240.612 10.8416 242.526C10.8416 242.526 18.6499 250.333 20.8136 252.497C22.9773 254.661 24.1057 253.616 24.822 253.257C25.6462 252.845 26.4852 252.453 27.3315 252.08C28.0037 251.783 28.6857 251.506 29.3726 251.236C30.133 250.939 30.8984 250.66 31.6736 250.397C32.5297 250.103 34.2813 249.988 34.2813 247.535C34.2813 245.082 34.2763 232.812 34.2763 232.812C34.2788 230.104 36.4719 227.906 39.1826 227.906H58.8076C61.5183 227.908 63.7163 230.104 63.7188 232.812C63.7188 232.812 63.7188 245.121 63.7188 247.535C63.7188 249.948 65.1735 250.012 65.8922 250.245C66.8146 250.552 67.7247 250.878 68.625 251.229C69.3119 251.496 69.9939 251.776 70.666 252.073C71.4584 252.421 72.2434 252.786 73.0137 253.172C73.7864 253.554 75.1945 254.484 77.2821 252.396C79.3697 250.309 87.1584 242.518 87.1584 242.518C89.0718 240.607 92.1775 240.603 94.0958 242.518L107.973 256.392C109.889 258.313 109.889 261.418 107.978 263.334C107.978 263.334 99.8803 271.431 98.0601 273.252C96.2398 275.072 96.8629 276.563 97.2137 277.257C97.6381 278.101 98.0404 278.957 98.4207 279.826C98.7175 280.5 98.9971 281.187 99.2694 281.876C99.5835 282.676 99.8754 283.485 100.15 284.305C100.425 285.122 100.817 286.782 102.964 286.782C105.11 286.782 117.683 286.782 117.683 286.782C120.391 286.782 122.589 288.98 122.589 291.688V311.312H122.594Z" fill="#3D2645"/>
<path d="M122.594 311.312V291.688C122.594 288.98 120.396 286.782 117.688 286.782C117.688 286.782 105.115 286.782 102.969 286.782C100.822 286.782 100.43 285.122 100.155 284.305C99.8803 283.485 99.5883 282.676 99.2744 281.876C99.0045 281.187 98.7224 280.5 98.4256 279.826C98.0453 278.957 97.643 278.101 97.2186 277.257C96.8654 276.563 96.2447 275.072 98.065 273.252C99.8852 271.431 107.983 263.334 107.983 263.334C109.894 261.418 109.894 258.313 107.978 256.392L94.1007 242.518C92.1824 240.603 89.0767 240.607 87.1633 242.518C87.1633 242.518 79.3746 250.309 77.287 252.396C75.1994 254.484 73.7913 253.557 73.0186 253.172C72.2483 252.786 71.4633 252.418 70.6709 252.073C69.9987 251.776 69.3168 251.499 68.6299 251.229C67.7296 250.876 66.8195 250.552 65.8971 250.245C65.1735 250.012 63.7188 249.948 63.7188 247.535C63.7188 245.121 63.7188 232.812 63.7188 232.812C63.7163 230.104 61.5208 227.908 58.8076 227.906H39.1826C36.4719 227.906 34.2788 230.104 34.2763 232.812C34.2763 232.812 34.2813 245.082 34.2813 247.535C34.2813 249.988 32.5297 250.103 31.6711 250.395C30.8984 250.655 30.1306 250.937 29.3701 251.234C28.6832 251.501 28.0013 251.781 27.3291 252.078C26.4803 252.45 25.6413 252.843 24.8195 253.255C24.1032 253.613 22.9773 254.661 20.8111 252.495C18.645 250.329 10.8392 242.523 10.8392 242.523C8.9233 240.61 5.81519 240.61 3.8993 242.526L-9.97803 256.402C-11.8939 258.318 -11.8915 261.423 -9.97803 263.339C-9.97803 263.339 -2.03726 271.279 -0.0624981 273.254C1.91227 275.229 1.01197 276.796 0.609657 277.611C0.249048 278.339 -0.0968437 279.08 -0.425562 279.828C-0.722391 280.503 -1.00204 281.184 -1.27189 281.874C-1.58589 282.673 -1.87781 283.483 -2.15256 284.302C-2.42731 285.119 -2.81981 286.78 -4.9663 286.78C-7.11278 286.78 -19.685 286.78 -19.685 286.78C-22.3933 286.78 -24.5913 288.978 -24.5913 291.686V311.309C-24.5913 314.018 -22.3933 316.215 -19.685 316.215C-19.685 316.215 -7.11278 316.215 -4.9663 316.215C-2.81981 316.215 -2.42731 317.876 -2.15256 318.693C-1.87781 319.512 -1.58589 320.322 -1.27189 321.121C-1.00204 321.811 -0.719938 322.497 -0.423111 323.172C-0.0428753 324.04 0.359438 324.896 0.783829 325.74C1.13708 326.434 1.75772 327.926 -0.0624981 329.746C-1.88272 331.566 -9.98048 339.663 -9.98048 339.663C-11.8915 341.579 -11.8915 344.685 -9.97558 346.605L3.90175 360.479C5.8201 362.395 8.92575 362.39 10.8392 360.479C10.8392 360.479 18.6279 352.689 20.7155 350.601C22.8031 348.514 24.2112 349.441 24.9839 349.826C25.7542 350.211 26.5392 350.579 27.3315 350.925C28.0037 351.222 28.6857 351.499 29.3726 351.769C30.2729 352.122 31.183 352.446 32.1053 352.752C32.8265 352.988 34.2813 353.052 34.2813 355.465C34.2813 357.879 34.2813 370.188 34.2813 370.188C34.2837 372.896 36.4793 375.092 39.1924 375.094H58.8174C61.5281 375.094 63.7212 372.896 63.7237 370.188C63.7237 370.188 63.7188 357.918 63.7188 355.465C63.7188 353.012 65.4703 352.897 66.3289 352.605C67.1016 352.345 67.8694 352.063 68.6299 351.766C69.3168 351.499 69.9987 351.219 70.6709 350.922C71.5197 350.55 72.3587 350.157 73.1805 349.745C73.8968 349.387 75.0228 348.34 77.1889 350.505C79.355 352.671 87.1608 360.477 87.1608 360.477C89.0767 362.39 92.1848 362.39 94.1007 360.474L107.978 346.598C109.894 344.682 109.891 341.577 107.978 339.661C107.978 339.661 100.037 331.721 98.0625 329.746C96.0877 327.771 96.988 326.204 97.3904 325.389C97.751 324.661 98.0968 323.92 98.4256 323.172C98.7224 322.497 99.002 321.816 99.2719 321.126C99.5859 320.327 99.8778 319.517 100.153 318.698C100.427 317.881 100.82 316.22 102.966 316.22C105.113 316.22 117.685 316.22 117.685 316.22C120.396 316.218 122.594 314.022 122.594 311.312ZM49 335.842C30.0324 335.842 14.6562 320.466 14.6562 301.5C14.6562 282.534 30.0324 267.158 49 267.158C67.9676 267.158 83.3438 282.534 83.3438 301.5C83.3438 320.466 67.9676 335.842 49 335.842Z" fill="#3D2645"/>
<path d="M517 321.158C498.032 321.158 482.656 336.534 482.656 355.5C482.656 374.466 498.032 389.842 517 389.842C535.968 389.842 551.344 374.466 551.344 355.5C551.344 336.534 535.968 321.158 517 321.158ZM517 384.936C500.743 384.936 487.562 371.756 487.562 355.5C487.562 339.244 500.743 326.064 517 326.064C533.257 326.064 546.438 339.244 546.438 355.5C546.438 371.756 533.257 384.936 517 384.936Z" fill="#3D2645"/>
<path d="M585.688 335.876H572.512C571.818 333.906 571.028 331.983 570.132 330.117L579.449 320.803C583.279 316.971 583.274 310.755 579.444 306.924L565.565 293.05C561.735 289.221 555.521 289.218 551.692 293.05L542.375 302.366C540.511 301.476 538.59 300.686 536.625 299.992V286.812C536.623 281.393 532.227 277.002 526.808 277L507.183 277.002C501.766 277.002 497.37 281.393 497.37 286.812V299.994C495.405 300.688 493.484 301.476 491.62 302.369L482.305 293.055C478.474 289.223 472.26 289.226 468.428 293.057L454.551 306.934C450.719 310.765 450.719 316.976 454.551 320.808L463.865 330.122C462.975 331.986 462.182 333.909 461.488 335.876H448.312C442.894 335.876 438.5 340.27 438.5 345.688V365.312C438.5 370.731 442.894 375.124 448.312 375.124H461.488C462.182 377.094 462.972 379.017 463.868 380.883L454.551 390.197C450.721 394.029 450.726 400.245 454.556 404.076L468.435 417.95C472.265 421.779 478.479 421.782 482.308 417.95L491.625 408.634C493.489 409.524 495.41 410.314 497.375 411.008V424.188C497.377 429.607 501.773 433.998 507.192 434L526.817 433.998C532.234 433.998 536.63 429.607 536.63 424.188V411.006C538.595 410.312 540.516 409.524 542.38 408.631L551.695 417.945C555.526 421.777 561.743 421.774 565.572 417.943L579.449 404.066C583.281 400.235 583.281 394.024 579.449 390.192L570.135 380.878C571.025 379.014 571.818 377.091 572.512 375.124H585.688C591.106 375.124 595.5 370.731 595.5 365.312V345.688C595.5 340.27 591.106 335.876 585.688 335.876ZM590.594 365.312C590.594 368.02 588.396 370.218 585.688 370.218C585.688 370.218 573.115 370.218 570.969 370.218C568.822 370.218 568.43 371.879 568.155 372.695C567.88 373.515 567.588 374.324 567.274 375.124C567.007 375.813 566.725 376.495 566.428 377.17C566.099 377.92 565.756 378.659 565.393 379.387C564.99 380.201 564.093 381.771 566.065 383.744C568.037 385.716 575.98 393.658 575.98 393.658C577.894 395.574 577.896 398.68 575.98 400.595L562.103 414.472C560.187 416.388 557.079 416.388 555.163 414.474C555.163 414.474 547.355 406.667 545.191 404.503C543.028 402.34 541.899 403.384 541.183 403.743C540.359 404.155 539.52 404.547 538.673 404.92C538.001 405.217 537.319 405.494 536.632 405.764C535.872 406.061 535.107 406.34 534.331 406.603C533.47 406.897 531.719 407.012 531.719 409.465C531.719 411.918 531.724 424.188 531.724 424.188C531.721 426.896 529.528 429.094 526.817 429.094H507.192C504.482 429.092 502.284 426.896 502.281 424.188C502.281 424.188 502.281 411.879 502.281 409.465C502.281 407.052 500.827 406.988 500.108 406.755C499.185 406.448 498.275 406.122 497.375 405.771C496.688 405.504 496.006 405.224 495.334 404.927C494.542 404.579 493.757 404.214 492.986 403.828C492.214 403.446 490.806 402.516 488.718 404.604C486.63 406.691 478.842 414.482 478.842 414.482C476.928 416.393 473.823 416.397 471.904 414.482L458.027 400.608C456.111 398.687 456.111 395.582 458.022 393.666C458.022 393.666 466.12 385.569 467.94 383.748C469.76 381.928 469.137 380.437 468.786 379.743C468.362 378.899 467.96 378.043 467.579 377.174C467.283 376.5 467.003 375.813 466.731 375.124C466.417 374.324 466.125 373.515 465.85 372.695C465.575 371.879 465.183 370.218 463.036 370.218C460.89 370.218 448.317 370.218 448.317 370.218C445.609 370.218 443.411 368.02 443.411 365.312V345.688C443.411 342.98 445.609 340.782 448.317 340.782C448.317 340.782 460.89 340.782 463.036 340.782C465.183 340.782 465.575 339.122 465.85 338.305C466.125 337.485 466.417 336.676 466.731 335.876C466.998 335.187 467.28 334.505 467.577 333.83C467.906 333.08 468.249 332.341 468.612 331.613C469.014 330.799 469.912 329.229 467.94 327.256C465.968 325.284 458.024 317.342 458.024 317.342C456.111 315.426 456.109 312.32 458.024 310.405L471.902 296.528C473.818 294.612 476.926 294.612 478.842 296.526C478.842 296.526 486.65 304.333 488.814 306.497C490.977 308.661 492.106 307.616 492.822 307.257C493.646 306.845 494.485 306.453 495.332 306.08C496.004 305.783 496.686 305.506 497.373 305.236C498.133 304.939 498.898 304.66 499.674 304.397C500.53 304.103 502.281 303.988 502.281 301.535C502.281 299.082 502.276 286.812 502.276 286.812C502.279 284.104 504.472 281.906 507.183 281.906H526.808C529.518 281.908 531.716 284.104 531.719 286.812C531.719 286.812 531.719 299.121 531.719 301.535C531.719 303.948 533.173 304.012 533.892 304.245C534.815 304.552 535.725 304.878 536.625 305.229C537.312 305.496 537.994 305.776 538.666 306.073C539.458 306.421 540.243 306.786 541.014 307.172C541.786 307.554 543.194 308.484 545.282 306.396C547.37 304.309 555.158 296.518 555.158 296.518C557.072 294.607 560.177 294.603 562.096 296.518L575.973 310.392C577.889 312.313 577.889 315.418 575.978 317.334C575.978 317.334 567.88 325.431 566.06 327.252C564.24 329.072 564.863 330.563 565.214 331.257C565.638 332.101 566.04 332.957 566.421 333.826C566.717 334.5 566.997 335.187 567.269 335.876C567.583 336.676 567.875 337.485 568.15 338.305C568.425 339.122 568.817 340.782 570.964 340.782C573.11 340.782 585.683 340.782 585.683 340.782C588.391 340.782 590.589 342.98 590.589 345.688V365.312H590.594Z" fill="#3D2645"/>
<path d="M590.594 365.312V345.688C590.594 342.98 588.396 340.782 585.688 340.782C585.688 340.782 573.115 340.782 570.969 340.782C568.822 340.782 568.43 339.122 568.155 338.305C567.88 337.485 567.588 336.676 567.274 335.876C567.005 335.187 566.722 334.5 566.426 333.826C566.045 332.957 565.643 332.101 565.219 331.257C564.865 330.563 564.245 329.072 566.065 327.252C567.885 325.431 575.983 317.334 575.983 317.334C577.894 315.418 577.894 312.313 575.978 310.392L562.101 296.518C560.182 294.603 557.077 294.607 555.163 296.518C555.163 296.518 547.375 304.309 545.287 306.396C543.199 308.484 541.791 307.557 541.019 307.172C540.248 306.786 539.463 306.418 538.671 306.073C537.999 305.776 537.317 305.499 536.63 305.229C535.73 304.876 534.82 304.552 533.897 304.245C533.173 304.012 531.719 303.948 531.719 301.535C531.719 299.121 531.719 286.812 531.719 286.812C531.716 284.104 529.521 281.908 526.808 281.906H507.183C504.472 281.906 502.279 284.104 502.276 286.812C502.276 286.812 502.281 299.082 502.281 301.535C502.281 303.988 500.53 304.103 499.671 304.395C498.898 304.655 498.131 304.937 497.37 305.234C496.683 305.501 496.001 305.781 495.329 306.078C494.48 306.45 493.641 306.843 492.82 307.255C492.103 307.613 490.977 308.661 488.811 306.495C486.645 304.329 478.839 296.523 478.839 296.523C476.923 294.61 473.815 294.61 471.899 296.526L458.022 310.402C456.106 312.318 456.109 315.423 458.022 317.339C458.022 317.339 465.963 325.279 467.938 327.254C469.912 329.229 469.012 330.796 468.61 331.611C468.249 332.339 467.903 333.08 467.574 333.828C467.278 334.503 466.998 335.184 466.728 335.874C466.414 336.673 466.122 337.483 465.847 338.302C465.573 339.119 465.18 340.78 463.034 340.78C460.887 340.78 448.315 340.78 448.315 340.78C445.607 340.78 443.409 342.978 443.409 345.686V365.309C443.409 368.018 445.607 370.215 448.315 370.215C448.315 370.215 460.887 370.215 463.034 370.215C465.18 370.215 465.573 371.876 465.847 372.693C466.122 373.512 466.414 374.322 466.728 375.121C466.998 375.811 467.28 376.497 467.577 377.172C467.957 378.04 468.359 378.896 468.784 379.74C469.137 380.434 469.758 381.926 467.938 383.746C466.117 385.566 458.02 393.663 458.02 393.663C456.109 395.579 456.109 398.685 458.024 400.605L471.902 414.479C473.82 416.395 476.926 416.39 478.839 414.479C478.839 414.479 486.628 406.689 488.715 404.601C490.803 402.514 492.211 403.441 492.984 403.826C493.754 404.211 494.539 404.579 495.332 404.925C496.004 405.222 496.686 405.499 497.373 405.769C498.273 406.122 499.183 406.446 500.105 406.752C500.827 406.988 502.281 407.052 502.281 409.465C502.281 411.879 502.281 424.188 502.281 424.188C502.284 426.896 504.479 429.092 507.192 429.094H526.817C529.528 429.094 531.721 426.896 531.724 424.188C531.724 424.188 531.719 411.918 531.719 409.465C531.719 407.012 533.47 406.897 534.329 406.605C535.102 406.345 535.869 406.063 536.63 405.766C537.317 405.499 537.999 405.219 538.671 404.922C539.52 404.55 540.359 404.157 541.18 403.745C541.897 403.387 543.023 402.34 545.189 404.505C547.355 406.671 555.161 414.477 555.161 414.477C557.077 416.39 560.185 416.39 562.101 414.474L575.978 400.598C577.894 398.682 577.891 395.577 575.978 393.661C575.978 393.661 568.037 385.721 566.063 383.746C564.088 381.771 564.988 380.204 565.39 379.389C565.751 378.661 566.097 377.92 566.426 377.172C566.722 376.497 567.002 375.816 567.272 375.126C567.586 374.327 567.878 373.517 568.153 372.698C568.427 371.881 568.82 370.22 570.966 370.22C573.113 370.22 585.685 370.22 585.685 370.22C588.396 370.218 590.594 368.022 590.594 365.312ZM517 389.842C498.032 389.842 482.656 374.466 482.656 355.5C482.656 336.534 498.032 321.158 517 321.158C535.968 321.158 551.344 336.534 551.344 355.5C551.344 374.466 535.968 389.842 517 389.842Z" fill="#3D2645"/>
</g>
</svg>
