<svg width="649" height="228" viewBox="0 0 649 228" fill="none" xmlns="http://www.w3.org/2000/svg">
<path d="M8.00355 134.172C5.61322 132.789 2.5546 133.606 1.17193 135.996C-0.210748 138.387 0.606119 141.445 2.99645 142.828L8.00355 134.172ZM594.833 27.5C594.833 42.2276 606.772 54.1667 621.5 54.1667C636.228 54.1667 648.167 42.2276 648.167 27.5C648.167 12.7724 636.228 0.833334 621.5 0.833334C606.772 0.833334 594.833 12.7724 594.833 27.5ZM2.99645 142.828C187.492 249.548 332.657 241.149 437.179 195.774C541.363 150.545 604.484 68.8829 625.883 29.9063L617.117 25.0937C596.516 62.6171 534.887 142.455 433.196 186.601C331.843 230.601 190.008 239.452 8.00355 134.172L2.99645 142.828Z" fill="#DA4167"/>
</svg>
