<svg width="517" height="577" viewBox="0 0 517 577" fill="none" xmlns="http://www.w3.org/2000/svg">
<g clip-path="url(#clip0_69_165)">
<path d="M492.679 543.857C489.456 544.99 485.996 545.273 482.632 544.681C479.267 544.088 476.113 542.64 473.471 540.474C466.743 534.828 464.631 525.527 462.918 516.913L457.842 491.438L468.469 498.755C476.112 504.017 483.927 509.448 489.219 517.07C494.511 524.692 496.821 535.097 492.569 543.343" fill="white"/>
<path d="M492.019 575.282L492.189 575.326L492.266 574.768L492.298 574.529C493.362 566.782 494.449 558.87 493.695 550.965L493.695 550.965C493.019 543.866 490.85 536.899 486.408 531.173L486.408 531.173C484.053 528.143 481.188 525.547 477.942 523.502L477.942 523.502C477.613 523.295 477.254 523.254 476.93 523.361C476.619 523.463 476.381 523.687 476.234 523.939C475.942 524.441 475.939 525.226 476.637 525.666C482.08 529.106 486.289 534.184 488.659 540.17C491.282 546.84 491.711 554.133 491.251 561.283L491.251 561.284C490.976 565.602 490.392 569.894 489.801 574.203C489.732 574.513 489.781 574.839 489.938 575.116C490.101 575.402 490.366 575.615 490.68 575.711L490.688 575.714L490.697 575.716C491.019 575.803 491.363 575.759 491.653 575.594C491.795 575.513 491.919 575.407 492.019 575.282Z" fill="#F0EFF4" stroke="white"/>
<path d="M453.252 444.575H8.62158V0H453.252V444.575Z" fill="#F0EFF4"/>
<path d="M453.252 444.575H8.62158V0H453.252V444.575ZM15.1909 438.006H446.682V6.56856H15.1909V438.006Z" fill="white"/>
<path d="M345.024 69.5537H181.941V75.5508H345.024V69.5537Z" fill="white"/>
<path d="M374.484 85.1465H181.941V91.1436H374.484V85.1465Z" fill="white"/>
<path d="M278.212 100.092H181.941V106.089H278.212V100.092Z" fill="white"/>
<path d="M374.484 203.443H181.941V209.44H374.484V203.443Z" fill="white"/>
<path d="M374.484 219.035H181.941V225.032H374.484V219.035Z" fill="white"/>
<path d="M374.484 234.627H181.941V240.625H374.484V234.627Z" fill="white"/>
<path d="M374.484 250.229H181.941V256.227H374.484V250.229Z" fill="white"/>
<path d="M374.484 337.332H181.941V343.329H374.484V337.332Z" fill="white"/>
<path d="M374.484 352.924H181.941V358.921H374.484V352.924Z" fill="white"/>
<path d="M374.484 368.517H181.941V374.514H374.484V368.517Z" fill="white"/>
<path d="M104.861 117.335C101.572 115.602 98.1382 114.157 94.5993 113.017L94.1481 108.026L75.847 106.055L73.5211 112.434L66.9533 114.899C66.7182 114.988 66.4945 115.104 66.2868 115.246H66.2797C65.9132 115.493 65.601 115.813 65.3622 116.186C65.1235 116.558 64.9632 116.975 64.8911 117.412C64.821 117.846 64.8376 118.289 64.9399 118.717L65.2871 120.14C65.7868 120.438 66.3007 120.723 66.8143 120.994L67.1407 121.16C67.8906 121.549 68.6544 121.917 69.4388 122.257C69.5985 122.326 69.7721 122.396 69.9317 122.465C69.9456 122.472 69.9524 122.472 69.9663 122.479C70.3345 122.632 70.7023 122.778 71.0772 122.917C72.3088 123.387 73.565 123.79 74.8402 124.124C78.0948 124.992 81.4488 125.431 84.817 125.43C86.0459 125.43 87.2609 125.374 88.462 125.256C91.2064 125.003 93.9157 124.456 96.5435 123.625C96.5502 123.625 96.5573 123.618 96.5641 123.618C98.2241 123.089 99.8457 122.446 101.417 121.695C101.424 121.688 101.438 121.688 101.445 121.681C101.799 121.514 102.139 121.334 102.487 121.16L102.653 121.077C102.931 120.931 103.209 120.785 103.486 120.633C104.18 120.251 104.861 119.848 105.534 119.418C105.722 119.307 105.902 119.189 106.09 119.064C106.354 118.89 106.617 118.71 106.874 118.522C106.228 118.106 105.555 117.71 104.861 117.335Z" fill="#3D2645"/>
<path d="M70.5148 120.411L69.3693 115.239H66.3769C66.3467 115.239 66.3166 115.242 66.2868 115.246H66.2796C65.2043 115.337 64.1686 115.695 63.2666 116.287C62.6548 116.678 62.1108 117.165 61.656 117.731C62.5445 118.404 63.468 119.029 64.4192 119.626L64.4609 119.647C64.7314 119.813 65.0094 119.98 65.2871 120.14C65.7868 120.438 66.3007 120.723 66.8143 120.994L67.1408 121.16C67.8906 121.549 68.6544 121.917 69.4388 122.257C69.5985 122.326 69.7721 122.396 69.9318 122.465C69.9457 122.472 69.9524 122.472 69.9663 122.479C70.3345 122.632 70.7023 122.778 71.0773 122.917L70.5148 120.411Z" fill="#3D2645"/>
<path d="M84.2793 102.899C91.5588 102.899 97.4599 96.999 97.4599 89.7204C97.4599 82.4419 91.5588 76.5415 84.2793 76.5415C76.9999 76.5415 71.0988 82.4419 71.0988 89.7204C71.0988 96.999 76.9999 102.899 84.2793 102.899Z" fill="#FFB8B8"/>
<path d="M75.43 83.3012C76.7945 84.9156 79.1035 85.3712 81.2336 85.558C86.2136 85.8331 91.2077 85.4253 96.0771 84.3461C96.3788 87.2701 95.5562 90.423 97.2787 92.8283C98.0861 89.9163 98.5556 86.921 98.678 83.9016C98.8065 82.6062 98.6374 81.2985 98.1834 80.0784C97.9406 79.4669 97.5312 78.9358 97.0016 78.5454C96.472 78.155 95.8435 77.921 95.1876 77.87C96.1695 77.1252 97.3198 76.6335 98.5368 76.4383L94.3516 74.3354L95.4264 73.2322L87.8494 72.7686L90.044 71.3746C86.741 70.9208 83.3995 70.8153 80.0745 71.0599C78.5207 71.0606 76.9964 71.4843 75.6651 72.2854C74.4141 73.1799 73.6912 74.9577 74.4678 76.271C73.4955 76.4307 72.58 76.8359 71.8081 77.4483C71.0363 78.0606 70.4335 78.8599 70.057 79.7704C69.5809 81.2175 69.466 82.7592 69.7222 84.2609C70.0076 86.6704 70.5677 89.0394 71.3914 91.3216L75.43 83.3012Z" fill="#3D2645"/>
<path d="M121.343 75.434C119.494 70.1219 116.508 65.2771 112.593 61.2375C108.679 57.1978 103.93 54.0606 98.6789 52.0444C93.4273 50.0283 87.799 49.1818 82.1867 49.564C76.5743 49.9462 71.1129 51.548 66.1832 54.2575C61.2535 56.967 56.9743 60.7191 53.6439 65.2521C50.3136 69.7852 48.0122 74.99 46.9003 80.5037C45.7885 86.0174 45.8929 91.7073 47.2063 97.1765C48.5196 102.646 51.0104 107.763 54.5048 112.171C54.8519 112.608 55.213 113.045 55.5811 113.469C55.6089 113.496 55.6296 113.524 55.6574 113.552C56.5624 114.595 57.5242 115.587 58.5386 116.523C58.8026 116.766 59.0803 117.016 59.3579 117.252C59.8854 117.724 60.4272 118.175 60.9896 118.606C61.2116 118.779 61.4269 118.953 61.656 119.119C62.5445 119.793 63.468 120.418 64.4192 121.015L64.4609 121.035C64.7315 121.202 65.0094 121.369 65.2871 121.528C65.7869 121.827 66.3007 122.111 66.8143 122.382L67.1408 122.549C67.8906 122.937 68.6544 123.305 69.4389 123.646C69.5986 123.715 69.7721 123.784 69.9318 123.854C69.9457 123.861 69.9525 123.861 69.9664 123.868C70.3345 124.02 70.7024 124.166 71.0773 124.305C72.3089 124.775 73.565 125.179 74.8402 125.513C78.0948 126.38 81.4488 126.819 84.817 126.818C86.0459 126.818 87.2609 126.762 88.462 126.644C91.2064 126.391 93.9157 125.844 96.5435 125.013C96.5503 125.013 96.5574 125.006 96.5642 125.006C98.2241 124.477 99.8457 123.835 101.417 123.083C101.424 123.076 101.438 123.076 101.445 123.069C101.799 122.903 102.139 122.722 102.487 122.549L102.653 122.465C102.931 122.32 103.209 122.174 103.486 122.021C104.181 121.639 104.861 121.237 105.534 120.806C105.722 120.695 105.902 120.577 106.09 120.452C106.354 120.279 106.617 120.098 106.874 119.911C107.214 119.675 107.555 119.432 107.888 119.182C107.992 119.106 108.103 119.029 108.207 118.946C114.712 114.009 119.486 107.141 121.846 99.3239C124.205 91.5073 124.029 83.1444 121.343 75.434ZM106.93 117.259C106.701 117.439 106.465 117.613 106.228 117.773C105.999 117.946 105.77 118.113 105.534 118.266C105.333 118.411 105.131 118.55 104.923 118.682L104.861 118.724C104.708 118.828 104.555 118.925 104.403 119.022C103.826 119.383 103.243 119.73 102.653 120.064L102.466 120.168C102.202 120.313 101.938 120.452 101.674 120.591C101.639 120.612 101.598 120.626 101.563 120.647L101.521 120.667C101.188 120.841 100.848 121.008 100.508 121.167C99.195 121.799 97.843 122.347 96.4601 122.806C96.2795 122.868 96.0991 122.931 95.9188 122.986C93.4315 123.777 90.8665 124.298 88.2678 124.541C87.1291 124.645 85.9765 124.701 84.8171 124.701C81.6313 124.707 78.4586 124.292 75.382 123.465C73.803 123.053 72.2555 122.529 70.7512 121.896C70.6746 121.861 70.5912 121.834 70.5149 121.799C70.4318 121.764 70.3552 121.737 70.2789 121.702C70.1955 121.667 70.1192 121.632 70.0359 121.591C69.3833 121.306 68.7375 120.994 68.1059 120.667L67.8005 120.508C67.0296 120.105 66.2729 119.675 65.537 119.217C65.3217 119.085 65.0997 118.946 64.8912 118.8C64.8359 118.765 64.7871 118.731 64.7315 118.696C64.2386 118.37 63.7457 118.03 63.2667 117.675C62.9405 117.433 62.6141 117.19 62.2947 116.94C61.7601 116.537 61.2462 116.107 60.7465 115.662C60.4828 115.44 60.2258 115.197 59.976 114.968C58.9915 114.059 58.0597 113.095 57.1849 112.08C56.8934 111.747 56.6087 111.414 56.3378 111.067C56.2762 110.998 56.2183 110.926 56.1642 110.852C51.6533 105.16 48.94 98.2541 48.3704 91.0144C47.8008 83.7747 49.4007 76.5294 52.966 70.2026C56.5314 63.8758 61.9006 58.7541 68.389 55.4908C74.8773 52.2275 82.1907 50.9704 89.3965 51.8799C96.6022 52.7893 103.374 55.8242 108.848 60.5973C114.321 65.3704 118.249 71.6655 120.13 78.6798C122.011 85.694 121.76 93.1095 119.409 99.9806C117.058 106.852 112.714 112.867 106.93 117.259Z" fill="#3D2645"/>
<path d="M121.343 209.323C119.494 204.011 116.508 199.166 112.593 195.127C108.679 191.087 103.931 187.95 98.6791 185.934C93.4275 183.917 87.7993 183.071 82.1869 183.453C76.5745 183.835 71.1131 185.437 66.1834 188.147C61.2538 190.856 56.9746 194.608 53.6442 199.141C50.3138 203.674 48.0125 208.879 46.9006 214.393C45.7887 219.907 45.8931 225.596 47.2065 231.066C48.5199 236.535 51.0106 241.652 54.505 246.06C54.8521 246.497 55.2132 246.934 55.581 247.358C55.6088 247.386 55.6295 247.413 55.6573 247.441C56.5625 248.484 57.5244 249.476 58.5388 250.412C58.8025 250.655 59.0802 250.905 59.3578 251.141C59.8856 251.613 60.427 252.064 60.9894 252.495C62.0875 253.36 63.2325 254.164 64.4191 254.904L64.4608 254.924C65.2314 255.403 66.0158 255.848 66.8145 256.271L67.1407 256.438C67.8905 256.827 68.6543 257.195 69.4387 257.535C69.5984 257.604 69.772 257.673 69.9317 257.743C69.9456 257.75 69.9526 257.75 69.9666 257.757C71.5517 258.416 73.1801 258.966 74.8404 259.402C78.0949 260.269 81.4488 260.708 84.8169 260.707C86.0458 260.707 87.2608 260.652 88.4619 260.534C91.2063 260.28 93.9156 259.733 96.5434 258.902C96.5505 258.902 96.5573 258.895 96.564 258.895C98.224 258.367 99.8456 257.724 101.417 256.972C101.424 256.965 101.438 256.965 101.445 256.958C101.799 256.792 102.139 256.611 102.486 256.438L102.653 256.354C102.931 256.209 103.208 256.063 103.486 255.91C104.18 255.528 104.861 255.126 105.534 254.695C105.722 254.584 105.902 254.466 106.09 254.341C106.701 253.939 107.305 253.508 107.888 253.071C107.992 252.995 108.103 252.918 108.207 252.835C114.712 247.898 119.486 241.029 121.846 233.213C124.205 225.396 124.029 217.034 121.343 209.323Z" fill="white"/>
<path d="M97.5805 237.975C100.782 237.975 103.377 235.381 103.377 232.18C103.377 228.979 100.782 226.384 97.5805 226.384C94.3791 226.384 91.7839 228.979 91.7839 232.18C91.7839 235.381 94.3791 237.975 97.5805 237.975Z" fill="#3D2645"/>
<path d="M99.1955 226.543C100.199 226.543 101.185 226.804 102.057 227.299C102.93 227.794 103.659 228.507 104.173 229.369C104.687 230.23 104.969 231.21 104.991 232.213C105.013 233.216 104.774 234.207 104.298 235.09C104.801 234.461 105.167 233.735 105.373 232.957C105.579 232.179 105.621 231.367 105.496 230.572C105.37 229.777 105.081 229.017 104.646 228.34C104.211 227.663 103.639 227.084 102.968 226.64C102.297 226.196 101.54 225.897 100.747 225.761C99.9534 225.626 99.1405 225.657 98.3599 225.853C97.5793 226.049 96.8481 226.405 96.2128 226.9C95.5775 227.394 95.0522 228.015 94.6702 228.723C95.2121 228.043 95.9004 227.493 96.6841 227.116C97.4677 226.739 98.3257 226.543 99.1955 226.543Z" fill="#3D2645"/>
<path d="M86.7484 232.167C96.1526 232.167 103.776 224.544 103.776 215.141C103.776 205.738 96.1526 198.115 86.7484 198.115C77.3442 198.115 69.7206 205.738 69.7206 215.141C69.7206 224.544 77.3442 232.167 86.7484 232.167Z" fill="#3D2645"/>
<path d="M73.3843 204.577C76.3183 201.278 80.4195 199.248 84.8225 198.915C89.2254 198.581 93.5855 199.972 96.9827 202.792C96.8439 202.659 96.705 202.526 96.5613 202.398C93.1976 199.385 88.7746 197.831 84.2654 198.079C79.7561 198.327 75.5299 200.355 72.5165 203.718C69.5032 207.082 67.9494 211.504 68.1972 216.013C68.4449 220.522 70.4738 224.747 73.8375 227.76C73.8698 227.789 73.9022 227.818 73.9348 227.847C74.0792 227.975 74.2278 228.097 74.3757 228.22C71.1766 225.177 69.285 221.01 69.1002 216.599C68.9153 212.188 70.451 207.877 73.3843 204.577Z" fill="#3D2645"/>
<path d="M86.604 232.023C92.6608 232.023 97.5708 227.113 97.5708 221.057C97.5708 215.001 92.6608 210.092 86.604 210.092C80.5472 210.092 75.6372 215.001 75.6372 221.057C75.6372 227.113 80.5472 232.023 86.604 232.023Z" fill="#A0616A"/>
<path d="M106.229 249.628V253.307C105.555 253.737 104.875 254.14 104.18 254.522C103.903 254.675 103.625 254.82 103.348 254.966L103.181 255.049C102.834 255.223 102.493 255.403 102.139 255.57C102.133 255.577 102.118 255.577 102.111 255.584C100.54 256.336 98.9183 256.978 97.2583 257.507C97.2515 257.507 97.2448 257.514 97.2377 257.514C94.6099 258.345 91.9006 258.892 89.1562 259.145C87.9551 259.263 86.7401 259.319 85.5112 259.319C82.1431 259.32 78.7892 258.881 75.5347 258.014C73.8744 257.577 72.246 257.027 70.6609 256.368C70.647 256.361 70.6399 256.361 70.6259 256.355C70.4663 256.285 70.2927 256.216 70.133 256.146C69.3486 255.806 68.5848 255.438 67.8349 255.049L67.5088 254.883C66.7101 254.459 65.9257 254.015 65.1551 253.536L65.1134 253.515C63.9268 252.776 62.7818 251.972 61.6838 251.106C61.1213 250.676 60.58 250.225 60.0521 249.753C59.7745 249.517 59.4968 249.267 59.2331 249.024C58.2187 248.087 57.2568 247.095 56.3516 246.053C56.4716 245.33 56.6481 244.617 56.8794 243.922L56.8862 243.915C56.9277 243.796 56.9764 243.68 57.0319 243.567C57.0702 243.468 57.1143 243.371 57.1638 243.276C58.4066 240.95 60.6562 240.374 63.4472 240.249C65.0233 240.18 66.7657 240.256 68.6058 240.235C69.5778 240.228 70.5842 240.194 71.5911 240.103C77.9437 239.527 76.7914 235.779 77.0759 233.759C77.3606 231.801 79.1241 233.495 79.2421 233.606L79.2489 233.613C82.8438 235.295 86.8211 235.992 90.7739 235.633C91.4543 235.55 92.1347 235.501 92.8151 235.48C94.6063 235.459 94.2175 235.973 93.5999 236.397C93.3 236.594 92.9868 236.77 92.6625 236.924C92.6625 236.924 92.3778 238.66 92.0862 241.256C91.8086 243.741 96.5712 244.907 96.9669 244.998C96.975 245.003 96.9848 245.005 96.9946 245.004C98.7339 244.553 100.565 244.602 102.278 245.143H102.285C103.264 245.503 104.137 246.102 104.826 246.885C105.515 247.668 105.997 248.611 106.229 249.628Z" fill="#DA4167"/>
<path d="M70.7301 254.091C70.7301 254.605 70.7165 255.098 70.6955 255.563C70.6887 255.841 70.6748 256.111 70.661 256.368C70.6471 256.361 70.6399 256.361 70.626 256.354C70.4663 256.285 70.2928 256.216 70.1331 256.146C69.3487 255.806 68.5849 255.438 67.835 255.049L67.5089 254.883C66.7102 254.459 65.9258 254.015 65.1552 253.536C65.1759 253.293 65.2108 253.05 65.2453 252.807C65.3216 252.272 65.3843 251.731 65.426 251.196C65.699 247.441 65.0183 243.678 63.4473 240.256V240.249C63.3083 239.971 63.2252 239.819 63.2252 239.819C63.2252 239.819 65.2453 238.083 68.1265 239.819C68.3106 239.927 68.4731 240.068 68.6059 240.235C70.3416 242.283 70.8135 249.169 70.7301 254.091Z" fill="#832161"/>
<path d="M102.257 253.147C102.229 253.925 102.188 254.737 102.139 255.563V255.57C102.133 255.577 102.118 255.577 102.112 255.584C100.54 256.336 98.9183 256.978 97.2583 257.507C97.2516 257.507 97.2448 257.514 97.2377 257.514L97.1614 255.563L97.1543 255.306L96.7865 245.81C96.7766 245.595 96.8104 245.38 96.8859 245.178C96.9613 244.977 97.0768 244.793 97.2254 244.637C97.374 244.481 97.5526 244.357 97.7504 244.272C97.9482 244.188 98.1612 244.144 98.3764 244.144H101.896C102.07 244.144 102.195 244.498 102.278 245.136V245.143C102.449 247.809 102.442 250.483 102.257 253.147Z" fill="#832161"/>
<path d="M77.2242 207.35V218.318H79.7639L82.9958 214.856L82.5633 218.318H93.7897L93.0954 214.856L94.484 218.318H96.2739V207.35H77.2242Z" fill="#3D2645"/>
<path d="M75.4927 220.336C75.9709 220.336 76.3585 219.625 76.3585 218.749C76.3585 217.873 75.9709 217.162 75.4927 217.162C75.0146 217.162 74.627 217.873 74.627 218.749C74.627 219.625 75.0146 220.336 75.4927 220.336Z" fill="#A0616A"/>
<path d="M97.7159 220.336C98.194 220.336 98.5816 219.625 98.5816 218.749C98.5816 217.873 98.194 217.162 97.7159 217.162C97.2377 217.162 96.8501 217.873 96.8501 218.749C96.8501 219.625 97.2377 220.336 97.7159 220.336Z" fill="#A0616A"/>
<path d="M108.582 251.682C107.999 252.12 107.395 252.55 106.784 252.953C106.597 253.078 106.416 253.196 106.229 253.307C105.555 253.737 104.875 254.14 104.18 254.522C103.903 254.674 103.625 254.82 103.348 254.966V247.316C103.348 247.316 104.458 248.205 106.229 249.683C106.451 249.871 106.68 250.065 106.923 250.273C107.437 250.704 107.992 251.176 108.582 251.682Z" fill="#DA4167"/>
<path d="M121.343 209.323C119.494 204.011 116.508 199.166 112.593 195.127C108.679 191.087 103.931 187.95 98.6791 185.934C93.4275 183.917 87.7993 183.071 82.1869 183.453C76.5745 183.835 71.1131 185.437 66.1834 188.147C61.2538 190.856 56.9746 194.608 53.6442 199.141C50.3138 203.674 48.0125 208.879 46.9006 214.393C45.7887 219.907 45.8931 225.596 47.2065 231.066C48.5199 236.535 51.0106 241.652 54.505 246.06C54.8521 246.497 55.2132 246.934 55.581 247.358C55.6088 247.386 55.6295 247.413 55.6573 247.441C56.5625 248.484 57.5244 249.476 58.5388 250.412C58.8025 250.655 59.0802 250.905 59.3578 251.141C59.8856 251.613 60.427 252.064 60.9894 252.495C62.0875 253.36 63.2325 254.164 64.4191 254.904L64.4608 254.924C65.2314 255.403 66.0158 255.848 66.8145 256.271L67.1407 256.438C67.8905 256.827 68.6543 257.195 69.4387 257.535C69.5984 257.604 69.772 257.673 69.9317 257.743C69.9456 257.75 69.9526 257.75 69.9666 257.757C71.5517 258.416 73.1801 258.966 74.8404 259.402C78.0949 260.269 81.4488 260.708 84.8169 260.707C86.0458 260.707 87.2608 260.652 88.4619 260.534C91.2063 260.28 93.9156 259.733 96.5434 258.902C96.5505 258.902 96.5573 258.895 96.564 258.895C98.224 258.367 99.8456 257.724 101.417 256.972C101.424 256.965 101.438 256.965 101.445 256.958C101.799 256.792 102.139 256.611 102.486 256.438L102.653 256.354C102.931 256.209 103.208 256.063 103.486 255.91C104.18 255.528 104.861 255.126 105.534 254.695C105.722 254.584 105.902 254.466 106.09 254.341C106.701 253.939 107.305 253.508 107.888 253.071C107.992 252.995 108.103 252.918 108.207 252.835C114.712 247.898 119.486 241.029 121.846 233.213C124.205 225.396 124.029 217.034 121.343 209.323ZM106.93 251.148C106.701 251.329 106.465 251.502 106.229 251.662C106 251.835 105.77 252.002 105.534 252.155C105.333 252.3 105.132 252.439 104.923 252.571C104.75 252.689 104.576 252.8 104.402 252.911C103.826 253.272 103.243 253.619 102.653 253.953L102.465 254.057C102.202 254.202 101.938 254.341 101.674 254.48C101.639 254.501 101.598 254.515 101.563 254.536L101.521 254.557C101.188 254.73 100.848 254.897 100.508 255.056C99.1949 255.689 97.8429 256.236 96.46 256.695C96.2797 256.757 96.099 256.82 95.9186 256.875C93.4314 257.666 90.8663 258.187 88.2676 258.43C87.1289 258.534 85.9763 258.59 84.8169 258.59C81.6311 258.596 78.4585 258.181 75.3818 257.354C73.8028 256.942 72.2553 256.418 70.751 255.785C70.5914 255.723 70.4317 255.653 70.2788 255.591C70.1957 255.556 70.1191 255.521 70.0357 255.48C69.3832 255.195 68.7377 254.883 68.1058 254.557L67.8004 254.397C67.0298 253.994 66.2728 253.564 65.5368 253.106C65.2663 252.939 64.9954 252.765 64.7317 252.585C63.8984 252.037 63.0862 251.447 62.2946 250.829C61.76 250.426 61.2464 249.996 60.7464 249.551C60.4826 249.329 60.2256 249.086 59.9758 248.857C58.9915 247.948 58.0596 246.984 57.1848 245.969C56.8933 245.636 56.6085 245.303 56.3377 244.956C56.2761 244.887 56.2181 244.815 56.1641 244.741C51.6532 239.049 48.9399 232.143 48.3703 224.903C47.8007 217.664 49.4006 210.419 52.9659 204.092C56.5313 197.765 61.9005 192.643 68.3888 189.38C74.8772 186.117 82.1906 184.859 89.3963 185.769C96.6021 186.678 103.374 189.713 108.847 194.486C114.321 199.259 118.249 205.555 120.13 212.569C122.011 219.583 121.76 226.999 119.409 233.87C117.058 240.741 112.714 246.756 106.93 251.148Z" fill="#3F3D56"/>
<path d="M85.0355 373.304C93.4046 373.304 100.189 366.521 100.189 358.153C100.189 349.785 93.4046 343.001 85.0355 343.001C76.6664 343.001 69.8818 349.785 69.8818 358.153C69.8818 366.521 76.6664 373.304 85.0355 373.304Z" fill="#3D2645"/>
<path d="M73.2072 349.983C75.6559 347.535 76.1522 344.061 74.3156 342.225C72.4791 340.389 69.0051 340.885 66.5563 343.333C64.1076 345.782 63.6113 349.255 65.4479 351.092C67.2844 352.928 70.7584 352.432 73.2072 349.983Z" fill="#3D2645"/>
<path d="M100.83 345.172C101.85 342.784 100.095 339.745 96.9106 338.385C93.7259 337.024 90.317 337.858 89.2967 340.246C88.2764 342.634 90.0311 345.673 93.2158 347.033C96.4005 348.393 99.8093 347.56 100.83 345.172Z" fill="#3D2645"/>
<path d="M103.161 387.543L101.376 384.734C100.619 383.042 99.2211 381.719 97.4899 381.055C95.7588 380.391 93.8349 380.44 92.1398 381.192C90.4447 381.943 89.1165 383.335 88.4461 385.064C87.7757 386.792 87.8178 388.716 88.5631 390.414L89.0708 392.234L89.6485 394.299C91.9876 394.004 94.2956 393.5 96.545 392.794C96.5516 392.793 96.5578 392.79 96.5625 392.785C98.2252 392.259 99.8484 391.616 101.42 390.86C101.429 390.851 101.437 390.851 101.446 390.843C101.796 390.676 102.138 390.501 102.488 390.326C102.545 390.301 102.6 390.271 102.654 390.239C102.934 390.099 103.214 389.95 103.485 389.801C103.765 389.652 104.037 389.495 104.299 389.329L103.161 387.543Z" fill="#CACACA"/>
<path d="M85.516 374.629C92.6188 374.629 98.3767 368.872 98.3767 361.77C98.3767 354.668 92.6188 348.911 85.516 348.911C78.4132 348.911 72.6553 354.668 72.6553 361.77C72.6553 368.872 78.4132 374.629 85.516 374.629Z" fill="#FFCBCB"/>
<path d="M104.089 386.992C102.671 384.633 100.91 382.498 98.8641 380.657C97.463 379.405 95.6496 378.713 93.7706 378.714H75.6538C74.6099 378.713 73.577 378.927 72.6189 379.342C71.6608 379.756 70.7979 380.363 70.0835 381.124C69.3691 381.885 68.8184 382.784 68.4653 383.767C68.1123 384.749 67.9644 385.793 68.0309 386.835C68.0704 387.422 68.1762 388.004 68.3463 388.567C68.4754 388.976 68.6363 389.374 68.8274 389.757L69.7201 391.543C69.7902 391.569 69.8603 391.604 69.93 391.63C69.9475 391.639 69.9565 391.639 69.965 391.648C70.3325 391.796 70.7004 391.945 71.0765 392.085C72.3081 392.556 73.5645 392.959 74.8401 393.293C76.8934 393.844 78.9895 394.222 81.1062 394.422C82.3404 394.535 83.5745 394.597 84.8172 394.597C86.0514 394.597 87.259 394.535 88.4667 394.422C88.8607 394.387 89.2543 394.343 89.6483 394.299C91.9874 394.004 94.2954 393.5 96.5448 392.794C96.5515 392.793 96.5576 392.79 96.5623 392.785C98.225 392.259 99.8482 391.616 101.42 390.86C101.428 390.851 101.437 390.851 101.446 390.843C101.796 390.676 102.137 390.501 102.487 390.326C102.545 390.301 102.6 390.271 102.654 390.239C102.934 390.099 103.214 389.95 103.485 389.801C103.765 389.652 104.036 389.495 104.299 389.329C104.579 389.18 104.842 389.014 105.113 388.847C104.781 388.191 104.439 387.579 104.089 386.992Z" fill="#3D2645"/>
<path d="M78.9359 381.059C77.2593 380.275 75.3405 380.186 73.5989 380.813C71.8572 381.439 70.4344 382.729 69.6416 384.402L68.031 386.835L67.2609 387.998L66.0883 389.766C66.3331 389.897 66.5694 390.029 66.8147 390.16L67.1382 390.326C67.8912 390.711 68.6523 391.079 69.4403 391.42C69.5275 391.464 69.6241 391.499 69.7202 391.542C69.7903 391.569 69.8604 391.604 69.9301 391.63C69.9476 391.639 69.9566 391.639 69.9651 391.648C70.3326 391.796 70.7005 391.945 71.0766 392.085C72.3082 392.556 73.5646 392.959 74.8402 393.293C76.8935 393.844 78.9896 394.222 81.1063 394.422L81.7191 392.348L82.3144 390.37C83.099 388.687 83.1839 386.761 82.5505 385.016C81.9172 383.27 80.6172 381.847 78.9359 381.059Z" fill="#3D2645"/>
<path d="M72.0024 353.682C74.9413 355.707 78.4295 356.785 81.9988 356.771C80.7256 357.654 79.2761 358.25 77.7503 358.518C82.4959 359.536 87.4005 359.564 92.1573 358.599C93.2146 358.43 94.2348 358.079 95.1732 357.564C95.6408 357.303 96.0482 356.946 96.3689 356.517C96.6896 356.088 96.9165 355.597 97.0347 355.074C97.3508 353.269 95.9438 351.628 94.4816 350.523C92.2428 348.856 89.6615 347.708 86.9244 347.161C84.1873 346.614 81.3628 346.682 78.6553 347.361C76.8513 347.724 75.2097 348.651 73.9681 350.009C73.3673 350.7 73.0046 351.566 72.9336 352.479C72.8626 353.392 73.087 354.304 73.5737 355.079L72.0024 353.682Z" fill="#3D2645"/>
<path d="M121.348 343.211C119.499 337.899 116.513 333.053 112.599 329.013C108.685 324.973 103.936 321.835 98.6841 319.819C93.4323 317.802 87.8037 316.955 82.1909 317.337C76.5781 317.719 71.1163 319.321 66.1862 322.031C61.2562 324.741 56.9767 328.493 53.6461 333.026C50.3156 337.56 48.0142 342.765 46.9025 348.279C45.7908 353.793 45.8955 359.484 47.2093 364.953C48.5231 370.423 51.0144 375.54 54.5094 379.948C54.8504 380.385 55.2184 380.823 55.5859 381.243C55.607 381.274 55.6304 381.303 55.656 381.33C56.5624 382.372 57.5265 383.363 58.544 384.297C58.8064 384.542 59.0777 384.796 59.3581 385.032C59.8829 385.504 60.4256 385.951 60.9944 386.38C61.2132 386.555 61.432 386.73 61.6597 386.896C62.5435 387.57 63.4712 388.191 64.4165 388.795C64.4327 388.795 64.4482 388.801 64.4601 388.812C64.7315 388.979 65.0118 389.145 65.2917 389.302C65.5541 389.46 65.8255 389.617 66.0883 389.766C66.3332 389.897 66.5695 390.029 66.8148 390.16L67.1383 390.326C67.8912 390.711 68.6524 391.079 69.4404 391.42C69.5275 391.464 69.6242 391.499 69.7203 391.543C69.7903 391.569 69.8604 391.604 69.9301 391.63C69.9476 391.639 69.9566 391.639 69.9651 391.648C70.3326 391.796 70.7006 391.945 71.0766 392.085C72.3082 392.556 73.5646 392.959 74.8402 393.293C76.8936 393.844 78.9897 394.222 81.1063 394.422C82.3405 394.535 83.5747 394.597 84.8174 394.597C86.0515 394.597 87.2592 394.535 88.4669 394.422C88.8609 394.387 89.2545 394.343 89.6485 394.299C91.9876 394.004 94.2956 393.5 96.5449 392.794C96.5516 392.793 96.5577 392.79 96.5624 392.785C98.2251 392.259 99.8484 391.616 101.42 390.86C101.429 390.851 101.437 390.851 101.446 390.842C101.796 390.676 102.138 390.501 102.488 390.326C102.545 390.3 102.6 390.271 102.654 390.239C102.934 390.099 103.214 389.95 103.485 389.801C103.765 389.652 104.037 389.495 104.299 389.329C104.579 389.18 104.842 389.014 105.113 388.847C105.253 388.76 105.393 388.672 105.533 388.585C105.726 388.471 105.901 388.357 106.093 388.226C106.356 388.06 106.619 387.876 106.872 387.692C107.214 387.456 107.555 387.211 107.887 386.957C108 386.884 108.108 386.805 108.211 386.721C114.711 381.781 119.481 374.912 121.841 367.098C124.2 359.283 124.028 350.922 121.348 343.211ZM106.934 385.032C106.706 385.216 106.47 385.391 106.234 385.548C105.997 385.723 105.77 385.89 105.533 386.047C105.332 386.187 105.131 386.327 104.921 386.458C104.902 386.475 104.881 386.49 104.859 386.502C104.711 386.607 104.553 386.703 104.404 386.8C104.299 386.861 104.194 386.931 104.089 386.992C103.783 387.185 103.476 387.368 103.162 387.543C102.995 387.648 102.82 387.745 102.654 387.841C102.593 387.876 102.531 387.911 102.47 387.946C102.199 388.095 101.936 388.226 101.673 388.366C101.639 388.392 101.595 388.401 101.569 388.427C101.552 388.428 101.537 388.434 101.525 388.445C101.192 388.62 100.851 388.786 100.51 388.944C99.1957 389.576 97.8421 390.123 96.4573 390.58C96.2825 390.641 96.0988 390.711 95.9236 390.764C93.6916 391.472 91.3968 391.964 89.0707 392.234C88.8083 392.269 88.537 392.295 88.2656 392.321C87.128 392.426 85.9815 392.479 84.8174 392.479C83.7845 392.479 82.7431 392.435 81.7192 392.348C79.5785 392.169 77.458 391.8 75.383 391.245C73.8034 390.833 72.256 390.307 70.7532 389.67C70.6741 389.635 70.5955 389.609 70.5169 389.574C70.4293 389.539 70.3592 389.512 70.2806 389.477C70.193 389.442 70.1229 389.407 70.0353 389.364C69.4665 389.119 68.8977 388.847 68.3464 388.567C68.2674 388.524 68.1887 388.489 68.1101 388.445L67.8037 388.287C67.6199 388.191 67.4362 388.095 67.261 387.998C66.6747 387.683 66.0969 387.342 65.5371 386.992C65.3269 386.861 65.0995 386.721 64.8892 386.581L64.7316 386.476C64.2414 386.143 63.7517 385.811 63.27 385.452C62.9461 385.207 62.6136 384.971 62.2987 384.717C61.7649 384.314 61.2483 383.886 60.7496 383.439C60.4868 383.221 60.2244 382.975 59.9795 382.748C58.994 381.84 58.0618 380.876 57.1877 379.86C56.8988 379.528 56.6099 379.195 56.3386 378.845C56.2775 378.775 56.2249 378.705 56.1634 378.626C51.6514 372.934 48.9372 366.028 48.3671 358.787C47.7969 351.546 49.3965 344.3 52.962 337.972C56.5274 331.644 61.897 326.522 68.3861 323.257C74.8751 319.993 82.1894 318.736 89.3962 319.645C96.603 320.554 103.376 323.589 108.85 328.363C114.325 333.136 118.254 339.432 120.135 346.447C122.017 353.462 121.766 360.879 119.415 367.751C117.063 374.623 112.718 380.639 106.934 385.032Z" fill="#3D2645"/>
<path d="M149.524 154.269C136.057 142.906 119.576 135.702 102.089 133.534C84.6015 131.366 66.8607 134.327 51.0255 142.056C35.1902 149.785 21.9432 161.95 12.8963 177.07C3.84947 192.19 -0.607106 209.613 0.0688825 227.219C0.744871 244.825 6.52427 261.855 16.7038 276.237C26.8834 290.619 41.0242 301.733 57.4055 308.225C73.7868 314.718 91.7024 316.31 108.972 312.808C126.242 309.305 142.121 300.859 154.678 288.498L266.178 382.569C267.875 383.996 270.069 384.691 272.279 384.503C274.488 384.315 276.533 383.259 277.965 381.565C279.396 379.872 280.098 377.681 279.916 375.471C279.734 373.261 278.683 371.214 276.994 369.778L276.982 369.767L165.481 275.695C178.434 257.108 183.978 234.353 181.026 211.891C178.074 189.43 166.84 168.88 149.524 154.269ZM142.336 266.637C133.65 276.93 122.106 284.417 109.164 288.15C96.2222 291.883 82.4639 291.695 69.629 287.61C56.7941 283.525 45.4589 275.726 37.0569 265.199C28.6549 254.673 23.5635 241.891 22.4264 228.472C21.2893 215.052 24.1577 201.596 30.6689 189.806C37.18 178.017 47.0414 168.422 59.0061 162.236C70.9708 156.05 84.5013 153.551 97.8867 155.054C111.272 156.557 123.911 161.995 134.206 170.68C148.01 182.327 156.622 198.98 158.147 216.975C159.671 234.97 153.984 252.834 142.336 266.637Z" fill="#3D2645"/>
<path opacity="0.3" d="M46.3673 274.766C33.3025 263.742 24.8615 248.209 22.7207 231.251C20.5798 214.292 24.8955 197.149 34.8108 183.225C33.5087 184.536 32.2499 185.909 31.0344 187.344C25.2668 194.179 20.9021 202.082 18.1893 210.603C15.4765 219.124 14.4688 228.096 15.2238 237.006C15.9788 245.917 18.4816 254.591 22.5894 262.534C26.6972 270.478 32.3295 277.534 39.1648 283.301C46 289.068 53.9043 293.432 62.4264 296.144C70.9485 298.857 79.9214 299.864 88.833 299.11C97.7445 298.355 106.42 295.852 114.364 291.745C122.309 287.638 129.366 282.006 135.133 275.172C136.346 273.734 137.488 272.263 138.56 270.756C126.5 282.872 110.325 290.009 93.2461 290.752C76.1671 291.495 59.4333 285.789 46.3673 274.766Z" fill="#832161"/>
<path d="M374.308 386.086C375.179 385.023 375.807 383.782 376.146 382.45C376.485 381.118 376.528 379.728 376.272 378.378C376.016 377.028 375.467 375.75 374.664 374.635C373.861 373.52 372.822 372.594 371.623 371.923L351.299 288.747L336.473 293.479L358.419 376.088C357.426 378.178 357.234 380.56 357.879 382.782C358.525 385.004 359.964 386.912 361.922 388.144C363.881 389.376 366.223 389.848 368.506 389.468C370.789 389.089 372.854 387.886 374.308 386.086Z" fill="#FFB6B6"/>
<path d="M363.804 332.883L352.969 342.229L337.81 355.295L331.115 321.044L330.415 317.482L329.864 314.656L345.223 287.904L358.027 288.638L358.903 288.691L358.92 288.884L359.121 290.678L361.747 314.287L361.808 314.857L363.804 332.883Z" fill="#832161"/>
<path d="M292.984 565.372L282.255 565.371L277.15 523.99L292.986 523.991L292.984 565.372Z" fill="#FFB6B6"/>
<path d="M295.721 575.771L261.123 575.77V575.332C261.124 571.762 262.542 568.337 265.068 565.812C267.593 563.287 271.018 561.868 274.589 561.868H274.59L295.721 561.869L295.721 575.771Z" fill="#3D2645"/>
<path d="M405.009 566.247L394.28 566.246L389.175 524.865L405.012 524.866L405.009 566.247Z" fill="#FFB6B6"/>
<path d="M407.746 576.646L373.148 576.645V576.207C373.149 572.637 374.568 569.212 377.093 566.687C379.618 564.162 383.043 562.743 386.615 562.743H386.616L407.746 562.744L407.746 576.646Z" fill="#3D2645"/>
<path d="M413.585 549.774L384.704 554.149L342.686 411.965L298.059 555.024L265.677 550.649L307.686 384.382V371.256L313.375 351.566L312.78 346.237L308.64 308.967L306.846 292.804L306.73 291.76C306.632 290.884 306.864 290.003 307.381 289.288C307.897 288.574 308.661 288.077 309.524 287.895L323.002 285.06H345.031L358.028 288.639L358.92 288.884L359.323 288.997L359.122 290.678L356.076 316.213L355.91 317.613L352.969 342.229L352.321 347.628C377.702 366.005 378.577 384.382 378.577 384.382L413.585 549.774Z" fill="#3D2645"/>
<path d="M331.354 273.989C343.226 273.989 352.85 264.366 352.85 252.496C352.85 240.625 343.226 231.002 331.354 231.002C319.483 231.002 309.859 240.625 309.859 252.496C309.859 264.366 319.483 273.989 331.354 273.989Z" fill="#FFB6B6"/>
<path d="M353.932 342.689L311.409 348.25L312.203 354.323L354.726 348.763L353.932 342.689Z" fill="#832161"/>
<path d="M254.371 350.081C254.778 350.344 255.163 350.639 255.523 350.962L297.582 340.242L300.451 330.097L316.33 332.425L312.996 350.879C312.727 352.37 311.981 353.733 310.871 354.764C309.761 355.795 308.346 356.438 306.84 356.597L257.731 361.768C256.931 363.453 255.636 364.854 254.02 365.785C252.404 366.717 250.542 367.134 248.682 366.982C246.823 366.83 245.054 366.115 243.611 364.933C242.168 363.751 241.119 362.157 240.603 360.365C240.088 358.572 240.13 356.665 240.725 354.897C241.321 353.129 242.44 351.584 243.935 350.467C245.429 349.351 247.228 348.716 249.093 348.647C250.957 348.578 252.798 349.078 254.371 350.081Z" fill="#FFB6B6"/>
<path d="M319.064 293.373L311.625 287.685C309.613 286.922 306.857 289.089 306.373 291.185L295.871 334.064L317.751 349.816L320.814 345.003L319.064 293.373Z" fill="#832161"/>
<g opacity="0.2">
<path d="M361.747 314.287C359.89 315.024 357.997 315.667 356.076 316.213C355.463 316.396 354.833 316.571 354.212 316.738C350.116 317.874 345.907 318.555 341.661 318.768C339.834 318.845 338.003 318.795 336.183 318.619C334.228 318.424 332.297 318.043 330.415 317.482C330.354 317.464 330.284 317.447 330.222 317.429C326.309 316.318 322.721 314.28 319.764 311.487C319.103 310.844 318.486 310.157 317.917 309.431C316.283 307.429 315.084 305.109 314.397 302.619C313.71 300.128 313.549 297.522 313.926 294.966C313.999 294.502 314.099 294.044 314.224 293.592C314.554 292.36 314.99 291.16 315.528 290.004C315.764 289.461 316.027 288.927 316.307 288.402L326.196 285.06H345.031L358.027 288.639L358.903 288.691L358.92 288.884L359.323 288.997L359.121 290.678L361.747 314.287Z" fill="black"/>
</g>
<path d="M314.883 234.701C310.863 234.209 306.451 234.557 303.318 237.123C300.185 239.689 299.173 245.023 302.14 247.78C304.766 250.221 308.873 249.647 312.391 250.341C315.421 251.02 318.136 252.696 320.101 255.101C322.066 257.505 323.168 260.5 323.229 263.604C323.177 272.507 314.631 279.25 313.096 288.02C312.048 294.005 314.573 300.305 318.938 304.533C323.303 308.761 329.303 311.046 335.349 311.664C341.394 312.283 347.507 311.338 353.383 309.785C359.283 308.225 365.091 306.013 370.041 302.445C374.992 298.877 379.05 293.847 380.639 287.955C382.229 282.064 381.088 275.309 376.992 270.786C372.302 265.607 364.499 263.825 360.442 258.136C355.894 251.759 357.577 242.677 353.896 235.763C351.439 231.146 346.786 227.998 341.826 226.339C336.866 224.68 331.569 224.353 326.341 224.192C323.594 224.108 320.762 224.08 318.202 225.081C315.642 226.083 313.391 228.366 313.259 231.111C313.126 233.857 314.883 234.701 314.883 234.701Z" fill="#3D2645"/>
<path d="M516.125 577H182.675C182.443 577 182.22 576.908 182.056 576.744C181.892 576.58 181.799 576.357 181.799 576.125C181.799 575.893 181.892 575.67 182.056 575.506C182.22 575.342 182.443 575.25 182.675 575.25H516.125C516.357 575.25 516.58 575.342 516.744 575.506C516.908 575.67 517 575.893 517 576.125C517 576.357 516.908 576.58 516.744 576.744C516.58 576.908 516.357 577 516.125 577Z" fill="white"/>
</g>
<defs>
<clipPath id="clip0_69_165">
<rect width="517" height="577" fill="white"/>
</clipPath>
</defs>
</svg>
